<?xml version="1.0" encoding="utf-8" standalone="no"?>
<!DOCTYPE svg PUBLIC "-//W3C//DTD SVG 1.1//EN"
  "http://www.w3.org/Graphics/SVG/1.1/DTD/svg11.dtd">
<svg xmlns:xlink="http://www.w3.org/1999/xlink" width="522.76375pt" height="284.169375pt" viewBox="0 0 522.76375 284.169375" xmlns="http://www.w3.org/2000/svg" version="1.1">
 <metadata>
  <rdf:RDF xmlns:dc="http://purl.org/dc/elements/1.1/" xmlns:cc="http://creativecommons.org/ns#" xmlns:rdf="http://www.w3.org/1999/02/22-rdf-syntax-ns#">
   <cc:Work>
    <dc:type rdf:resource="http://purl.org/dc/dcmitype/StillImage"/>
    <dc:date>2026-10-04T16:53:38.260946</dc:date>
    <dc:format>image/svg+xml</dc:format>
    <dc:creator>
     <cc:Agent>
      <dc:title>Matplotlib v3.10.9, https://matplotlib.org/</dc:title>
     </cc:Agent>
    </dc:creator>
   </cc:Work>
  </rdf:RDF>
 </metadata>
 <defs>
  <style type="text/css">*{stroke-linejoin: round; stroke-linecap: butt}</style>
 </defs>
 <g id="figure_1">
  <g id="patch_1">
   <path d="M 0 284.169375 
L 522.76375 284.169375 
L 522.76375 -0 
L 0 -0 
z
" style="fill: #ffffff"/>
  </g>
  <g id="axes_1">
   <g id="patch_2">
    <path d="M 127.9025 182.16 
L 248.8625 182.16 
L 248.8625 61.2 
L 127.9025 61.2 
z
" style="fill: #ffffff"/>
   </g>
   <g id="line2d_1">
    <path d="M 133.400682 75.861818 
L 243.364318 75.861818 
" clip-path="url(#p8e6d978f95)" style="fill: none; stroke: #e1e0d9; stroke-width: 0.5; stroke-linecap: square"/>
   </g>
   <g id="line2d_2">
    <path d="M 133.400682 94.189091 
L 243.364318 94.189091 
" clip-path="url(#p8e6d978f95)" style="fill: none; stroke: #e1e0d9; stroke-width: 0.5; stroke-linecap: square"/>
   </g>
   <g id="line2d_3">
    <path d="M 133.400682 112.516364 
L 243.364318 112.516364 
" clip-path="url(#p8e6d978f95)" style="fill: none; stroke: #e1e0d9; stroke-width: 0.5; stroke-linecap: square"/>
   </g>
   <g id="line2d_4">
    <path d="M 133.400682 130.843636 
L 243.364318 130.843636 
" clip-path="url(#p8e6d978f95)" style="fill: none; stroke: #e1e0d9; stroke-width: 0.5; stroke-linecap: square"/>
   </g>
   <g id="line2d_5">
    <path d="M 133.400682 149.170909 
L 243.364318 149.170909 
" clip-path="url(#p8e6d978f95)" style="fill: none; stroke: #e1e0d9; stroke-width: 0.5; stroke-linecap: square"/>
   </g>
   <g id="line2d_6">
    <path d="M 133.400682 167.498182 
L 243.364318 167.498182 
" clip-path="url(#p8e6d978f95)" style="fill: none; stroke: #e1e0d9; stroke-width: 0.5; stroke-linecap: square"/>
   </g>
   <g id="matplotlib.axis_1">
    <g id="xtick_1">
     <g id="line2d_7"/>
     <g id="text_1">
      <!-- narB -->
      <g transform="translate(132.484401 204.91115) rotate(-45) scale(0.09 -0.09)">
       <defs>
        <path id="DejaVuSans-6e" d="M 3513 2113 
L 3513 0 
L 2938 0 
L 2938 2094 
Q 2938 2591 2744 2837 
Q 2550 3084 2163 3084 
Q 1697 3084 1428 2787 
Q 1159 2491 1159 1978 
L 1159 0 
L 581 0 
L 581 3500 
L 1159 3500 
L 1159 2956 
Q 1366 3272 1645 3428 
Q 1925 3584 2291 3584 
Q 2894 3584 3203 3211 
Q 3513 2838 3513 2113 
z
" transform="scale(0.015625)"/>
        <path id="DejaVuSans-61" d="M 2194 1759 
Q 1497 1759 1228 1600 
Q 959 1441 959 1056 
Q 959 750 1161 570 
Q 1363 391 1709 391 
Q 2188 391 2477 730 
Q 2766 1069 2766 1631 
L 2766 1759 
L 2194 1759 
z
M 3341 1997 
L 3341 0 
L 2766 0 
L 2766 531 
Q 2569 213 2275 61 
Q 1981 -91 1556 -91 
Q 1019 -91 701 211 
Q 384 513 384 1019 
Q 384 1609 779 1909 
Q 1175 2209 1959 2209 
L 2766 2209 
L 2766 2266 
Q 2766 2663 2505 2880 
Q 2244 3097 1772 3097 
Q 1472 3097 1187 3025 
Q 903 2953 641 2809 
L 641 3341 
Q 956 3463 1253 3523 
Q 1550 3584 1831 3584 
Q 2591 3584 2966 3190 
Q 3341 2797 3341 1997 
z
" transform="scale(0.015625)"/>
        <path id="DejaVuSans-72" d="M 2631 2963 
Q 2534 3019 2420 3045 
Q 2306 3072 2169 3072 
Q 1681 3072 1420 2755 
Q 1159 2438 1159 1844 
L 1159 0 
L 581 0 
L 581 3500 
L 1159 3500 
L 1159 2956 
Q 1341 3275 1631 3429 
Q 1922 3584 2338 3584 
Q 2397 3584 2469 3576 
Q 2541 3569 2628 3553 
L 2631 2963 
z
" transform="scale(0.015625)"/>
        <path id="DejaVuSans-42" d="M 1259 2228 
L 1259 519 
L 2272 519 
Q 2781 519 3026 730 
Q 3272 941 3272 1375 
Q 3272 1813 3026 2020 
Q 2781 2228 2272 2228 
L 1259 2228 
z
M 1259 4147 
L 1259 2741 
L 2194 2741 
Q 2656 2741 2882 2914 
Q 3109 3088 3109 3444 
Q 3109 3797 2882 3972 
Q 2656 4147 2194 4147 
L 1259 4147 
z
M 628 4666 
L 2241 4666 
Q 2963 4666 3353 4366 
Q 3744 4066 3744 3513 
Q 3744 3084 3544 2831 
Q 3344 2578 2956 2516 
Q 3422 2416 3680 2098 
Q 3938 1781 3938 1306 
Q 3938 681 3513 340 
Q 3088 0 2303 0 
L 628 0 
L 628 4666 
z
" transform="scale(0.015625)"/>
       </defs>
       <use xlink:href="#DejaVuSans-6e"/>
       <use xlink:href="#DejaVuSans-61" transform="translate(63.378906 0)"/>
       <use xlink:href="#DejaVuSans-72" transform="translate(124.658203 0)"/>
       <use xlink:href="#DejaVuSans-42" transform="translate(165.771484 0)"/>
      </g>
     </g>
    </g>
    <g id="xtick_2">
     <g id="line2d_8"/>
     <g id="text_2">
      <!-- nasA -->
      <g transform="translate(150.125559 205.597264) rotate(-45) scale(0.09 -0.09)">
       <defs>
        <path id="DejaVuSans-73" d="M 2834 3397 
L 2834 2853 
Q 2591 2978 2328 3040 
Q 2066 3103 1784 3103 
Q 1356 3103 1142 2972 
Q 928 2841 928 2578 
Q 928 2378 1081 2264 
Q 1234 2150 1697 2047 
L 1894 2003 
Q 2506 1872 2764 1633 
Q 3022 1394 3022 966 
Q 3022 478 2636 193 
Q 2250 -91 1575 -91 
Q 1294 -91 989 -36 
Q 684 19 347 128 
L 347 722 
Q 666 556 975 473 
Q 1284 391 1588 391 
Q 1994 391 2212 530 
Q 2431 669 2431 922 
Q 2431 1156 2273 1281 
Q 2116 1406 1581 1522 
L 1381 1569 
Q 847 1681 609 1914 
Q 372 2147 372 2553 
Q 372 3047 722 3315 
Q 1072 3584 1716 3584 
Q 2034 3584 2315 3537 
Q 2597 3491 2834 3397 
z
" transform="scale(0.015625)"/>
        <path id="DejaVuSans-41" d="M 2188 4044 
L 1331 1722 
L 3047 1722 
L 2188 4044 
z
M 1831 4666 
L 2547 4666 
L 4325 0 
L 3669 0 
L 3244 1197 
L 1141 1197 
L 716 0 
L 50 0 
L 1831 4666 
z
" transform="scale(0.015625)"/>
       </defs>
       <use xlink:href="#DejaVuSans-6e"/>
       <use xlink:href="#DejaVuSans-61" transform="translate(63.378906 0)"/>
       <use xlink:href="#DejaVuSans-73" transform="translate(124.658203 0)"/>
       <use xlink:href="#DejaVuSans-41" transform="translate(176.757812 0)"/>
      </g>
     </g>
    </g>
    <g id="xtick_3">
     <g id="line2d_9"/>
     <g id="text_3">
      <!-- nasB -->
      <g transform="translate(168.439905 205.610191) rotate(-45) scale(0.09 -0.09)">
       <use xlink:href="#DejaVuSans-6e"/>
       <use xlink:href="#DejaVuSans-61" transform="translate(63.378906 0)"/>
       <use xlink:href="#DejaVuSans-73" transform="translate(124.658203 0)"/>
       <use xlink:href="#DejaVuSans-42" transform="translate(176.757812 0)"/>
      </g>
     </g>
    </g>
    <g id="xtick_4">
     <g id="line2d_10"/>
     <g id="text_4">
      <!-- nirA -->
      <g transform="translate(189.611072 202.766296) rotate(-45) scale(0.09 -0.09)">
       <defs>
        <path id="DejaVuSans-69" d="M 603 3500 
L 1178 3500 
L 1178 0 
L 603 0 
L 603 3500 
z
M 603 4863 
L 1178 4863 
L 1178 4134 
L 603 4134 
L 603 4863 
z
" transform="scale(0.015625)"/>
       </defs>
       <use xlink:href="#DejaVuSans-6e"/>
       <use xlink:href="#DejaVuSans-69" transform="translate(63.378906 0)"/>
       <use xlink:href="#DejaVuSans-72" transform="translate(91.162109 0)"/>
       <use xlink:href="#DejaVuSans-41" transform="translate(132.275391 0)"/>
      </g>
     </g>
    </g>
    <g id="xtick_5">
     <g id="line2d_11"/>
     <g id="text_5">
      <!-- nasD -->
      <g transform="translate(204.560474 206.144167) rotate(-45) scale(0.09 -0.09)">
       <defs>
        <path id="DejaVuSans-44" d="M 1259 4147 
L 1259 519 
L 2022 519 
Q 2988 519 3436 956 
Q 3884 1394 3884 2338 
Q 3884 3275 3436 3711 
Q 2988 4147 2022 4147 
L 1259 4147 
z
M 628 4666 
L 1925 4666 
Q 3281 4666 3915 4102 
Q 4550 3538 4550 2338 
Q 4550 1131 3912 565 
Q 3275 0 1925 0 
L 628 0 
L 628 4666 
z
" transform="scale(0.015625)"/>
       </defs>
       <use xlink:href="#DejaVuSans-6e"/>
       <use xlink:href="#DejaVuSans-61" transform="translate(63.378906 0)"/>
       <use xlink:href="#DejaVuSans-73" transform="translate(124.658203 0)"/>
       <use xlink:href="#DejaVuSans-44" transform="translate(176.757812 0)"/>
      </g>
     </g>
    </g>
    <g id="xtick_6">
     <g id="line2d_12"/>
     <g id="text_6">
      <!-- NR -->
      <g transform="translate(229.853301 199.178613) rotate(-45) scale(0.09 -0.09)">
       <defs>
        <path id="DejaVuSans-4e" d="M 628 4666 
L 1478 4666 
L 3547 763 
L 3547 4666 
L 4159 4666 
L 4159 0 
L 3309 0 
L 1241 3903 
L 1241 0 
L 628 0 
L 628 4666 
z
" transform="scale(0.015625)"/>
        <path id="DejaVuSans-52" d="M 2841 2188 
Q 3044 2119 3236 1894 
Q 3428 1669 3622 1275 
L 4263 0 
L 3584 0 
L 2988 1197 
Q 2756 1666 2539 1819 
Q 2322 1972 1947 1972 
L 1259 1972 
L 1259 0 
L 628 0 
L 628 4666 
L 2053 4666 
Q 2853 4666 3247 4331 
Q 3641 3997 3641 3322 
Q 3641 2881 3436 2590 
Q 3231 2300 2841 2188 
z
M 1259 4147 
L 1259 2491 
L 2053 2491 
Q 2509 2491 2742 2702 
Q 2975 2913 2975 3322 
Q 2975 3731 2742 3939 
Q 2509 4147 2053 4147 
L 1259 4147 
z
" transform="scale(0.015625)"/>
       </defs>
       <use xlink:href="#DejaVuSans-4e"/>
       <use xlink:href="#DejaVuSans-52" transform="translate(74.804688 0)"/>
      </g>
     </g>
    </g>
   </g>
   <g id="matplotlib.axis_2">
    <g id="ytick_1">
     <g id="line2d_13"/>
     <g id="text_7">
      <!-- D1_Paracoccus_soil -->
      <g style="fill: #0b0b0b" transform="translate(47.25875 78.901193) scale(0.08 -0.08)">
       <defs>
        <path id="DejaVuSans-31" d="M 794 531 
L 1825 531 
L 1825 4091 
L 703 3866 
L 703 4441 
L 1819 4666 
L 2450 4666 
L 2450 531 
L 3481 531 
L 3481 0 
L 794 0 
L 794 531 
z
" transform="scale(0.015625)"/>
        <path id="DejaVuSans-5f" d="M 3263 -1063 
L 3263 -1509 
L -63 -1509 
L -63 -1063 
L 3263 -1063 
z
" transform="scale(0.015625)"/>
        <path id="DejaVuSans-50" d="M 1259 4147 
L 1259 2394 
L 2053 2394 
Q 2494 2394 2734 2622 
Q 2975 2850 2975 3272 
Q 2975 3691 2734 3919 
Q 2494 4147 2053 4147 
L 1259 4147 
z
M 628 4666 
L 2053 4666 
Q 2838 4666 3239 4311 
Q 3641 3956 3641 3272 
Q 3641 2581 3239 2228 
Q 2838 1875 2053 1875 
L 1259 1875 
L 1259 0 
L 628 0 
L 628 4666 
z
" transform="scale(0.015625)"/>
        <path id="DejaVuSans-63" d="M 3122 3366 
L 3122 2828 
Q 2878 2963 2633 3030 
Q 2388 3097 2138 3097 
Q 1578 3097 1268 2742 
Q 959 2388 959 1747 
Q 959 1106 1268 751 
Q 1578 397 2138 397 
Q 2388 397 2633 464 
Q 2878 531 3122 666 
L 3122 134 
Q 2881 22 2623 -34 
Q 2366 -91 2075 -91 
Q 1284 -91 818 406 
Q 353 903 353 1747 
Q 353 2603 823 3093 
Q 1294 3584 2113 3584 
Q 2378 3584 2631 3529 
Q 2884 3475 3122 3366 
z
" transform="scale(0.015625)"/>
        <path id="DejaVuSans-6f" d="M 1959 3097 
Q 1497 3097 1228 2736 
Q 959 2375 959 1747 
Q 959 1119 1226 758 
Q 1494 397 1959 397 
Q 2419 397 2687 759 
Q 2956 1122 2956 1747 
Q 2956 2369 2687 2733 
Q 2419 3097 1959 3097 
z
M 1959 3584 
Q 2709 3584 3137 3096 
Q 3566 2609 3566 1747 
Q 3566 888 3137 398 
Q 2709 -91 1959 -91 
Q 1206 -91 779 398 
Q 353 888 353 1747 
Q 353 2609 779 3096 
Q 1206 3584 1959 3584 
z
" transform="scale(0.015625)"/>
        <path id="DejaVuSans-75" d="M 544 1381 
L 544 3500 
L 1119 3500 
L 1119 1403 
Q 1119 906 1312 657 
Q 1506 409 1894 409 
Q 2359 409 2629 706 
Q 2900 1003 2900 1516 
L 2900 3500 
L 3475 3500 
L 3475 0 
L 2900 0 
L 2900 538 
Q 2691 219 2414 64 
Q 2138 -91 1772 -91 
Q 1169 -91 856 284 
Q 544 659 544 1381 
z
M 1991 3584 
L 1991 3584 
z
" transform="scale(0.015625)"/>
        <path id="DejaVuSans-6c" d="M 603 4863 
L 1178 4863 
L 1178 0 
L 603 0 
L 603 4863 
z
" transform="scale(0.015625)"/>
       </defs>
       <use xlink:href="#DejaVuSans-44"/>
       <use xlink:href="#DejaVuSans-31" transform="translate(77.001953 0)"/>
       <use xlink:href="#DejaVuSans-5f" transform="translate(140.625 0)"/>
       <use xlink:href="#DejaVuSans-50" transform="translate(190.625 0)"/>
       <use xlink:href="#DejaVuSans-61" transform="translate(246.427734 0)"/>
       <use xlink:href="#DejaVuSans-72" transform="translate(307.707031 0)"/>
       <use xlink:href="#DejaVuSans-61" transform="translate(348.820312 0)"/>
       <use xlink:href="#DejaVuSans-63" transform="translate(410.099609 0)"/>
       <use xlink:href="#DejaVuSans-6f" transform="translate(465.080078 0)"/>
       <use xlink:href="#DejaVuSans-63" transform="translate(526.261719 0)"/>
       <use xlink:href="#DejaVuSans-63" transform="translate(581.242188 0)"/>
       <use xlink:href="#DejaVuSans-75" transform="translate(636.222656 0)"/>
       <use xlink:href="#DejaVuSans-73" transform="translate(699.601562 0)"/>
       <use xlink:href="#DejaVuSans-5f" transform="translate(751.701172 0)"/>
       <use xlink:href="#DejaVuSans-73" transform="translate(801.701172 0)"/>
       <use xlink:href="#DejaVuSans-6f" transform="translate(853.800781 0)"/>
       <use xlink:href="#DejaVuSans-69" transform="translate(914.982422 0)"/>
       <use xlink:href="#DejaVuSans-6c" transform="translate(942.765625 0)"/>
      </g>
     </g>
    </g>
    <g id="ytick_2">
     <g id="line2d_14"/>
     <g id="text_8">
      <!-- N3_Nitrospina_NOB -->
      <g style="fill: #0b0b0b" transform="translate(47.2675 97.228466) scale(0.08 -0.08)">
       <defs>
        <path id="DejaVuSans-33" d="M 2597 2516 
Q 3050 2419 3304 2112 
Q 3559 1806 3559 1356 
Q 3559 666 3084 287 
Q 2609 -91 1734 -91 
Q 1441 -91 1130 -33 
Q 819 25 488 141 
L 488 750 
Q 750 597 1062 519 
Q 1375 441 1716 441 
Q 2309 441 2620 675 
Q 2931 909 2931 1356 
Q 2931 1769 2642 2001 
Q 2353 2234 1838 2234 
L 1294 2234 
L 1294 2753 
L 1863 2753 
Q 2328 2753 2575 2939 
Q 2822 3125 2822 3475 
Q 2822 3834 2567 4026 
Q 2313 4219 1838 4219 
Q 1578 4219 1281 4162 
Q 984 4106 628 3988 
L 628 4550 
Q 988 4650 1302 4700 
Q 1616 4750 1894 4750 
Q 2613 4750 3031 4423 
Q 3450 4097 3450 3541 
Q 3450 3153 3228 2886 
Q 3006 2619 2597 2516 
z
" transform="scale(0.015625)"/>
        <path id="DejaVuSans-74" d="M 1172 4494 
L 1172 3500 
L 2356 3500 
L 2356 3053 
L 1172 3053 
L 1172 1153 
Q 1172 725 1289 603 
Q 1406 481 1766 481 
L 2356 481 
L 2356 0 
L 1766 0 
Q 1100 0 847 248 
Q 594 497 594 1153 
L 594 3053 
L 172 3053 
L 172 3500 
L 594 3500 
L 594 4494 
L 1172 4494 
z
" transform="scale(0.015625)"/>
        <path id="DejaVuSans-70" d="M 1159 525 
L 1159 -1331 
L 581 -1331 
L 581 3500 
L 1159 3500 
L 1159 2969 
Q 1341 3281 1617 3432 
Q 1894 3584 2278 3584 
Q 2916 3584 3314 3078 
Q 3713 2572 3713 1747 
Q 3713 922 3314 415 
Q 2916 -91 2278 -91 
Q 1894 -91 1617 61 
Q 1341 213 1159 525 
z
M 3116 1747 
Q 3116 2381 2855 2742 
Q 2594 3103 2138 3103 
Q 1681 3103 1420 2742 
Q 1159 2381 1159 1747 
Q 1159 1113 1420 752 
Q 1681 391 2138 391 
Q 2594 391 2855 752 
Q 3116 1113 3116 1747 
z
" transform="scale(0.015625)"/>
        <path id="DejaVuSans-4f" d="M 2522 4238 
Q 1834 4238 1429 3725 
Q 1025 3213 1025 2328 
Q 1025 1447 1429 934 
Q 1834 422 2522 422 
Q 3209 422 3611 934 
Q 4013 1447 4013 2328 
Q 4013 3213 3611 3725 
Q 3209 4238 2522 4238 
z
M 2522 4750 
Q 3503 4750 4090 4092 
Q 4678 3434 4678 2328 
Q 4678 1225 4090 567 
Q 3503 -91 2522 -91 
Q 1538 -91 948 565 
Q 359 1222 359 2328 
Q 359 3434 948 4092 
Q 1538 4750 2522 4750 
z
" transform="scale(0.015625)"/>
       </defs>
       <use xlink:href="#DejaVuSans-4e"/>
       <use xlink:href="#DejaVuSans-33" transform="translate(74.804688 0)"/>
       <use xlink:href="#DejaVuSans-5f" transform="translate(138.427734 0)"/>
       <use xlink:href="#DejaVuSans-4e" transform="translate(188.427734 0)"/>
       <use xlink:href="#DejaVuSans-69" transform="translate(263.232422 0)"/>
       <use xlink:href="#DejaVuSans-74" transform="translate(291.015625 0)"/>
       <use xlink:href="#DejaVuSans-72" transform="translate(330.224609 0)"/>
       <use xlink:href="#DejaVuSans-6f" transform="translate(369.087891 0)"/>
       <use xlink:href="#DejaVuSans-73" transform="translate(430.269531 0)"/>
       <use xlink:href="#DejaVuSans-70" transform="translate(482.369141 0)"/>
       <use xlink:href="#DejaVuSans-69" transform="translate(545.845703 0)"/>
       <use xlink:href="#DejaVuSans-6e" transform="translate(573.628906 0)"/>
       <use xlink:href="#DejaVuSans-61" transform="translate(637.007812 0)"/>
       <use xlink:href="#DejaVuSans-5f" transform="translate(698.287109 0)"/>
       <use xlink:href="#DejaVuSans-4e" transform="translate(748.287109 0)"/>
       <use xlink:href="#DejaVuSans-4f" transform="translate(823.091797 0)"/>
       <use xlink:href="#DejaVuSans-42" transform="translate(901.802734 0)"/>
      </g>
     </g>
    </g>
    <g id="ytick_3">
     <g id="line2d_15"/>
     <g id="text_9">
      <!-- D2_Thiobacillus_groundwater -->
      <g style="fill: #0b0b0b" transform="translate(7.2 115.555739) scale(0.08 -0.08)">
       <defs>
        <path id="DejaVuSans-32" d="M 1228 531 
L 3431 531 
L 3431 0 
L 469 0 
L 469 531 
Q 828 903 1448 1529 
Q 2069 2156 2228 2338 
Q 2531 2678 2651 2914 
Q 2772 3150 2772 3378 
Q 2772 3750 2511 3984 
Q 2250 4219 1831 4219 
Q 1534 4219 1204 4116 
Q 875 4013 500 3803 
L 500 4441 
Q 881 4594 1212 4672 
Q 1544 4750 1819 4750 
Q 2544 4750 2975 4387 
Q 3406 4025 3406 3419 
Q 3406 3131 3298 2873 
Q 3191 2616 2906 2266 
Q 2828 2175 2409 1742 
Q 1991 1309 1228 531 
z
" transform="scale(0.015625)"/>
        <path id="DejaVuSans-54" d="M -19 4666 
L 3928 4666 
L 3928 4134 
L 2272 4134 
L 2272 0 
L 1638 0 
L 1638 4134 
L -19 4134 
L -19 4666 
z
" transform="scale(0.015625)"/>
        <path id="DejaVuSans-68" d="M 3513 2113 
L 3513 0 
L 2938 0 
L 2938 2094 
Q 2938 2591 2744 2837 
Q 2550 3084 2163 3084 
Q 1697 3084 1428 2787 
Q 1159 2491 1159 1978 
L 1159 0 
L 581 0 
L 581 4863 
L 1159 4863 
L 1159 2956 
Q 1366 3272 1645 3428 
Q 1925 3584 2291 3584 
Q 2894 3584 3203 3211 
Q 3513 2838 3513 2113 
z
" transform="scale(0.015625)"/>
        <path id="DejaVuSans-62" d="M 3116 1747 
Q 3116 2381 2855 2742 
Q 2594 3103 2138 3103 
Q 1681 3103 1420 2742 
Q 1159 2381 1159 1747 
Q 1159 1113 1420 752 
Q 1681 391 2138 391 
Q 2594 391 2855 752 
Q 3116 1113 3116 1747 
z
M 1159 2969 
Q 1341 3281 1617 3432 
Q 1894 3584 2278 3584 
Q 2916 3584 3314 3078 
Q 3713 2572 3713 1747 
Q 3713 922 3314 415 
Q 2916 -91 2278 -91 
Q 1894 -91 1617 61 
Q 1341 213 1159 525 
L 1159 0 
L 581 0 
L 581 4863 
L 1159 4863 
L 1159 2969 
z
" transform="scale(0.015625)"/>
        <path id="DejaVuSans-67" d="M 2906 1791 
Q 2906 2416 2648 2759 
Q 2391 3103 1925 3103 
Q 1463 3103 1205 2759 
Q 947 2416 947 1791 
Q 947 1169 1205 825 
Q 1463 481 1925 481 
Q 2391 481 2648 825 
Q 2906 1169 2906 1791 
z
M 3481 434 
Q 3481 -459 3084 -895 
Q 2688 -1331 1869 -1331 
Q 1566 -1331 1297 -1286 
Q 1028 -1241 775 -1147 
L 775 -588 
Q 1028 -725 1275 -790 
Q 1522 -856 1778 -856 
Q 2344 -856 2625 -561 
Q 2906 -266 2906 331 
L 2906 616 
Q 2728 306 2450 153 
Q 2172 0 1784 0 
Q 1141 0 747 490 
Q 353 981 353 1791 
Q 353 2603 747 3093 
Q 1141 3584 1784 3584 
Q 2172 3584 2450 3431 
Q 2728 3278 2906 2969 
L 2906 3500 
L 3481 3500 
L 3481 434 
z
" transform="scale(0.015625)"/>
        <path id="DejaVuSans-64" d="M 2906 2969 
L 2906 4863 
L 3481 4863 
L 3481 0 
L 2906 0 
L 2906 525 
Q 2725 213 2448 61 
Q 2172 -91 1784 -91 
Q 1150 -91 751 415 
Q 353 922 353 1747 
Q 353 2572 751 3078 
Q 1150 3584 1784 3584 
Q 2172 3584 2448 3432 
Q 2725 3281 2906 2969 
z
M 947 1747 
Q 947 1113 1208 752 
Q 1469 391 1925 391 
Q 2381 391 2643 752 
Q 2906 1113 2906 1747 
Q 2906 2381 2643 2742 
Q 2381 3103 1925 3103 
Q 1469 3103 1208 2742 
Q 947 2381 947 1747 
z
" transform="scale(0.015625)"/>
        <path id="DejaVuSans-77" d="M 269 3500 
L 844 3500 
L 1563 769 
L 2278 3500 
L 2956 3500 
L 3675 769 
L 4391 3500 
L 4966 3500 
L 4050 0 
L 3372 0 
L 2619 2869 
L 1863 0 
L 1184 0 
L 269 3500 
z
" transform="scale(0.015625)"/>
        <path id="DejaVuSans-65" d="M 3597 1894 
L 3597 1613 
L 953 1613 
Q 991 1019 1311 708 
Q 1631 397 2203 397 
Q 2534 397 2845 478 
Q 3156 559 3463 722 
L 3463 178 
Q 3153 47 2828 -22 
Q 2503 -91 2169 -91 
Q 1331 -91 842 396 
Q 353 884 353 1716 
Q 353 2575 817 3079 
Q 1281 3584 2069 3584 
Q 2775 3584 3186 3129 
Q 3597 2675 3597 1894 
z
M 3022 2063 
Q 3016 2534 2758 2815 
Q 2500 3097 2075 3097 
Q 1594 3097 1305 2825 
Q 1016 2553 972 2059 
L 3022 2063 
z
" transform="scale(0.015625)"/>
       </defs>
       <use xlink:href="#DejaVuSans-44"/>
       <use xlink:href="#DejaVuSans-32" transform="translate(77.001953 0)"/>
       <use xlink:href="#DejaVuSans-5f" transform="translate(140.625 0)"/>
       <use xlink:href="#DejaVuSans-54" transform="translate(190.625 0)"/>
       <use xlink:href="#DejaVuSans-68" transform="translate(251.708984 0)"/>
       <use xlink:href="#DejaVuSans-69" transform="translate(315.087891 0)"/>
       <use xlink:href="#DejaVuSans-6f" transform="translate(342.871094 0)"/>
       <use xlink:href="#DejaVuSans-62" transform="translate(404.052734 0)"/>
       <use xlink:href="#DejaVuSans-61" transform="translate(467.529297 0)"/>
       <use xlink:href="#DejaVuSans-63" transform="translate(528.808594 0)"/>
       <use xlink:href="#DejaVuSans-69" transform="translate(583.789062 0)"/>
       <use xlink:href="#DejaVuSans-6c" transform="translate(611.572266 0)"/>
       <use xlink:href="#DejaVuSans-6c" transform="translate(639.355469 0)"/>
       <use xlink:href="#DejaVuSans-75" transform="translate(667.138672 0)"/>
       <use xlink:href="#DejaVuSans-73" transform="translate(730.517578 0)"/>
       <use xlink:href="#DejaVuSans-5f" transform="translate(782.617188 0)"/>
       <use xlink:href="#DejaVuSans-67" transform="translate(832.617188 0)"/>
       <use xlink:href="#DejaVuSans-72" transform="translate(896.09375 0)"/>
       <use xlink:href="#DejaVuSans-6f" transform="translate(934.957031 0)"/>
       <use xlink:href="#DejaVuSans-75" transform="translate(996.138672 0)"/>
       <use xlink:href="#DejaVuSans-6e" transform="translate(1059.517578 0)"/>
       <use xlink:href="#DejaVuSans-64" transform="translate(1122.896484 0)"/>
       <use xlink:href="#DejaVuSans-77" transform="translate(1186.373047 0)"/>
       <use xlink:href="#DejaVuSans-61" transform="translate(1268.160156 0)"/>
       <use xlink:href="#DejaVuSans-74" transform="translate(1329.439453 0)"/>
       <use xlink:href="#DejaVuSans-65" transform="translate(1368.648438 0)"/>
       <use xlink:href="#DejaVuSans-72" transform="translate(1430.171875 0)"/>
      </g>
     </g>
    </g>
    <g id="ytick_4">
     <g id="line2d_16"/>
     <g id="text_10">
      <!-- Neg2_Ecoli_K12 -->
      <g style="fill: #0b0b0b" transform="translate(61.60625 133.883011) scale(0.08 -0.08)">
       <defs>
        <path id="DejaVuSans-45" d="M 628 4666 
L 3578 4666 
L 3578 4134 
L 1259 4134 
L 1259 2753 
L 3481 2753 
L 3481 2222 
L 1259 2222 
L 1259 531 
L 3634 531 
L 3634 0 
L 628 0 
L 628 4666 
z
" transform="scale(0.015625)"/>
        <path id="DejaVuSans-4b" d="M 628 4666 
L 1259 4666 
L 1259 2694 
L 3353 4666 
L 4166 4666 
L 1850 2491 
L 4331 0 
L 3500 0 
L 1259 2247 
L 1259 0 
L 628 0 
L 628 4666 
z
" transform="scale(0.015625)"/>
       </defs>
       <use xlink:href="#DejaVuSans-4e"/>
       <use xlink:href="#DejaVuSans-65" transform="translate(74.804688 0)"/>
       <use xlink:href="#DejaVuSans-67" transform="translate(136.328125 0)"/>
       <use xlink:href="#DejaVuSans-32" transform="translate(199.804688 0)"/>
       <use xlink:href="#DejaVuSans-5f" transform="translate(263.427734 0)"/>
       <use xlink:href="#DejaVuSans-45" transform="translate(313.427734 0)"/>
       <use xlink:href="#DejaVuSans-63" transform="translate(376.611328 0)"/>
       <use xlink:href="#DejaVuSans-6f" transform="translate(431.591797 0)"/>
       <use xlink:href="#DejaVuSans-6c" transform="translate(492.773438 0)"/>
       <use xlink:href="#DejaVuSans-69" transform="translate(520.556641 0)"/>
       <use xlink:href="#DejaVuSans-5f" transform="translate(548.339844 0)"/>
       <use xlink:href="#DejaVuSans-4b" transform="translate(598.339844 0)"/>
       <use xlink:href="#DejaVuSans-31" transform="translate(663.916016 0)"/>
       <use xlink:href="#DejaVuSans-32" transform="translate(727.539062 0)"/>
      </g>
     </g>
    </g>
    <g id="ytick_5">
     <g id="line2d_17"/>
     <g id="text_11">
      <!-- A1_Brocadia_reactor -->
      <g style="fill: #0b0b0b" transform="translate(42.69 152.210284) scale(0.08 -0.08)">
       <use xlink:href="#DejaVuSans-41"/>
       <use xlink:href="#DejaVuSans-31" transform="translate(68.408203 0)"/>
       <use xlink:href="#DejaVuSans-5f" transform="translate(132.03125 0)"/>
       <use xlink:href="#DejaVuSans-42" transform="translate(182.03125 0)"/>
       <use xlink:href="#DejaVuSans-72" transform="translate(250.634766 0)"/>
       <use xlink:href="#DejaVuSans-6f" transform="translate(289.498047 0)"/>
       <use xlink:href="#DejaVuSans-63" transform="translate(350.679688 0)"/>
       <use xlink:href="#DejaVuSans-61" transform="translate(405.660156 0)"/>
       <use xlink:href="#DejaVuSans-64" transform="translate(466.939453 0)"/>
       <use xlink:href="#DejaVuSans-69" transform="translate(530.416016 0)"/>
       <use xlink:href="#DejaVuSans-61" transform="translate(558.199219 0)"/>
       <use xlink:href="#DejaVuSans-5f" transform="translate(619.478516 0)"/>
       <use xlink:href="#DejaVuSans-72" transform="translate(669.478516 0)"/>
       <use xlink:href="#DejaVuSans-65" transform="translate(708.341797 0)"/>
       <use xlink:href="#DejaVuSans-61" transform="translate(769.865234 0)"/>
       <use xlink:href="#DejaVuSans-63" transform="translate(831.144531 0)"/>
       <use xlink:href="#DejaVuSans-74" transform="translate(886.125 0)"/>
       <use xlink:href="#DejaVuSans-6f" transform="translate(925.333984 0)"/>
       <use xlink:href="#DejaVuSans-72" transform="translate(986.515625 0)"/>
      </g>
     </g>
    </g>
    <g id="ytick_6">
     <g id="line2d_18"/>
     <g id="text_12">
      <!-- N2_Nitrosomonas_AOB -->
      <g style="fill: #0b0b0b" transform="translate(33.47125 170.537557) scale(0.08 -0.08)">
       <defs>
        <path id="DejaVuSans-6d" d="M 3328 2828 
Q 3544 3216 3844 3400 
Q 4144 3584 4550 3584 
Q 5097 3584 5394 3201 
Q 5691 2819 5691 2113 
L 5691 0 
L 5113 0 
L 5113 2094 
Q 5113 2597 4934 2840 
Q 4756 3084 4391 3084 
Q 3944 3084 3684 2787 
Q 3425 2491 3425 1978 
L 3425 0 
L 2847 0 
L 2847 2094 
Q 2847 2600 2669 2842 
Q 2491 3084 2119 3084 
Q 1678 3084 1418 2786 
Q 1159 2488 1159 1978 
L 1159 0 
L 581 0 
L 581 3500 
L 1159 3500 
L 1159 2956 
Q 1356 3278 1631 3431 
Q 1906 3584 2284 3584 
Q 2666 3584 2933 3390 
Q 3200 3197 3328 2828 
z
" transform="scale(0.015625)"/>
       </defs>
       <use xlink:href="#DejaVuSans-4e"/>
       <use xlink:href="#DejaVuSans-32" transform="translate(74.804688 0)"/>
       <use xlink:href="#DejaVuSans-5f" transform="translate(138.427734 0)"/>
       <use xlink:href="#DejaVuSans-4e" transform="translate(188.427734 0)"/>
       <use xlink:href="#DejaVuSans-69" transform="translate(263.232422 0)"/>
       <use xlink:href="#DejaVuSans-74" transform="translate(291.015625 0)"/>
       <use xlink:href="#DejaVuSans-72" transform="translate(330.224609 0)"/>
       <use xlink:href="#DejaVuSans-6f" transform="translate(369.087891 0)"/>
       <use xlink:href="#DejaVuSans-73" transform="translate(430.269531 0)"/>
       <use xlink:href="#DejaVuSans-6f" transform="translate(482.369141 0)"/>
       <use xlink:href="#DejaVuSans-6d" transform="translate(543.550781 0)"/>
       <use xlink:href="#DejaVuSans-6f" transform="translate(640.962891 0)"/>
       <use xlink:href="#DejaVuSans-6e" transform="translate(702.144531 0)"/>
       <use xlink:href="#DejaVuSans-61" transform="translate(765.523438 0)"/>
       <use xlink:href="#DejaVuSans-73" transform="translate(826.802734 0)"/>
       <use xlink:href="#DejaVuSans-5f" transform="translate(878.902344 0)"/>
       <use xlink:href="#DejaVuSans-41" transform="translate(928.902344 0)"/>
       <use xlink:href="#DejaVuSans-4f" transform="translate(995.560547 0)"/>
       <use xlink:href="#DejaVuSans-42" transform="translate(1074.271484 0)"/>
      </g>
     </g>
    </g>
   </g>
   <g id="patch_3">
    <path d="M 142.564318 82.459636 
C 144.31408 82.459636 145.992412 81.764449 147.22968 80.52718 
C 148.466949 79.289912 149.162136 77.61158 149.162136 75.861818 
C 149.162136 74.112056 148.466949 72.433725 147.22968 71.196456 
C 145.992412 69.959188 144.31408 69.264 142.564318 69.264 
C 140.814556 69.264 139.136225 69.959188 137.898956 71.196456 
C 136.661688 72.433725 135.9665 74.112056 135.9665 75.861818 
C 135.9665 77.61158 136.661688 79.289912 137.898956 80.52718 
C 139.136225 81.764449 140.814556 82.459636 142.564318 82.459636 
L 142.564318 82.459636 
z
" style="fill: none; stroke: #d9d8d2; stroke-width: 0.6; stroke-linejoin: miter"/>
   </g>
   <g id="patch_4">
    <path d="M 179.218864 82.459636 
C 180.968625 82.459636 182.646957 81.764449 183.884226 80.52718 
C 185.121494 79.289912 185.816682 77.61158 185.816682 75.861818 
C 185.816682 74.112056 185.121494 72.433725 183.884226 71.196456 
C 182.646957 69.959188 180.968625 69.264 179.218864 69.264 
C 177.469102 69.264 175.79077 69.959188 174.553502 71.196456 
C 173.316233 72.433725 172.621045 74.112056 172.621045 75.861818 
C 172.621045 77.61158 173.316233 79.289912 174.553502 80.52718 
C 175.79077 81.764449 177.469102 82.459636 179.218864 82.459636 
L 179.218864 82.459636 
z
" style="fill: none; stroke: #d9d8d2; stroke-width: 0.6; stroke-linejoin: miter"/>
   </g>
   <g id="patch_5">
    <path d="M 197.546136 82.459636 
C 199.295898 82.459636 200.97423 81.764449 202.211498 80.52718 
C 203.448767 79.289912 204.143955 77.61158 204.143955 75.861818 
C 204.143955 74.112056 203.448767 72.433725 202.211498 71.196456 
C 200.97423 69.959188 199.295898 69.264 197.546136 69.264 
C 195.796375 69.264 194.118043 69.959188 192.880774 71.196456 
C 191.643506 72.433725 190.948318 74.112056 190.948318 75.861818 
C 190.948318 77.61158 191.643506 79.289912 192.880774 80.52718 
C 194.118043 81.764449 195.796375 82.459636 197.546136 82.459636 
L 197.546136 82.459636 
z
" style="fill: none; stroke: #d9d8d2; stroke-width: 0.6; stroke-linejoin: miter"/>
   </g>
   <g id="patch_6">
    <path d="M 234.200682 82.459636 
C 235.950444 82.459636 237.628775 81.764449 238.866044 80.52718 
C 240.103312 79.289912 240.7985 77.61158 240.7985 75.861818 
C 240.7985 74.112056 240.103312 72.433725 238.866044 71.196456 
C 237.628775 69.959188 235.950444 69.264 234.200682 69.264 
C 232.45092 69.264 230.772588 69.959188 229.53532 71.196456 
C 228.298051 72.433725 227.602864 74.112056 227.602864 75.861818 
C 227.602864 77.61158 228.298051 79.289912 229.53532 80.52718 
C 230.772588 81.764449 232.45092 82.459636 234.200682 82.459636 
L 234.200682 82.459636 
z
" style="fill: none; stroke: #d9d8d2; stroke-width: 0.6; stroke-linejoin: miter"/>
   </g>
   <g id="patch_7">
    <path d="M 142.564318 100.786909 
C 144.31408 100.786909 145.992412 100.091721 147.22968 98.854453 
C 148.466949 97.617184 149.162136 95.938853 149.162136 94.189091 
C 149.162136 92.439329 148.466949 90.760997 147.22968 89.523729 
C 145.992412 88.28646 144.31408 87.591273 142.564318 87.591273 
C 140.814556 87.591273 139.136225 88.28646 137.898956 89.523729 
C 136.661688 90.760997 135.9665 92.439329 135.9665 94.189091 
C 135.9665 95.938853 136.661688 97.617184 137.898956 98.854453 
C 139.136225 100.091721 140.814556 100.786909 142.564318 100.786909 
L 142.564318 100.786909 
z
" style="fill: none; stroke: #d9d8d2; stroke-width: 0.6; stroke-linejoin: miter"/>
   </g>
   <g id="patch_8">
    <path d="M 160.891591 100.786909 
C 162.641353 100.786909 164.319684 100.091721 165.556953 98.854453 
C 166.794221 97.617184 167.489409 95.938853 167.489409 94.189091 
C 167.489409 92.439329 166.794221 90.760997 165.556953 89.523729 
C 164.319684 88.28646 162.641353 87.591273 160.891591 87.591273 
C 159.141829 87.591273 157.463497 88.28646 156.226229 89.523729 
C 154.98896 90.760997 154.293773 92.439329 154.293773 94.189091 
C 154.293773 95.938853 154.98896 97.617184 156.226229 98.854453 
C 157.463497 100.091721 159.141829 100.786909 160.891591 100.786909 
L 160.891591 100.786909 
z
" style="fill: none; stroke: #d9d8d2; stroke-width: 0.6; stroke-linejoin: miter"/>
   </g>
   <g id="patch_9">
    <path d="M 179.218864 100.786909 
C 180.968625 100.786909 182.646957 100.091721 183.884226 98.854453 
C 185.121494 97.617184 185.816682 95.938853 185.816682 94.189091 
C 185.816682 92.439329 185.121494 90.760997 183.884226 89.523729 
C 182.646957 88.28646 180.968625 87.591273 179.218864 87.591273 
C 177.469102 87.591273 175.79077 88.28646 174.553502 89.523729 
C 173.316233 90.760997 172.621045 92.439329 172.621045 94.189091 
C 172.621045 95.938853 173.316233 97.617184 174.553502 98.854453 
C 175.79077 100.091721 177.469102 100.786909 179.218864 100.786909 
L 179.218864 100.786909 
z
" style="fill: none; stroke: #d9d8d2; stroke-width: 0.6; stroke-linejoin: miter"/>
   </g>
   <g id="patch_10">
    <path d="M 215.873409 100.786909 
C 217.623171 100.786909 219.301503 100.091721 220.538771 98.854453 
C 221.77604 97.617184 222.471227 95.938853 222.471227 94.189091 
C 222.471227 92.439329 221.77604 90.760997 220.538771 89.523729 
C 219.301503 88.28646 217.623171 87.591273 215.873409 87.591273 
C 214.123647 87.591273 212.445316 88.28646 211.208047 89.523729 
C 209.970779 90.760997 209.275591 92.439329 209.275591 94.189091 
C 209.275591 95.938853 209.970779 97.617184 211.208047 98.854453 
C 212.445316 100.091721 214.123647 100.786909 215.873409 100.786909 
L 215.873409 100.786909 
z
" style="fill: none; stroke: #d9d8d2; stroke-width: 0.6; stroke-linejoin: miter"/>
   </g>
   <g id="patch_11">
    <path d="M 234.200682 100.786909 
C 235.950444 100.786909 237.628775 100.091721 238.866044 98.854453 
C 240.103312 97.617184 240.7985 95.938853 240.7985 94.189091 
C 240.7985 92.439329 240.103312 90.760997 238.866044 89.523729 
C 237.628775 88.28646 235.950444 87.591273 234.200682 87.591273 
C 232.45092 87.591273 230.772588 88.28646 229.53532 89.523729 
C 228.298051 90.760997 227.602864 92.439329 227.602864 94.189091 
C 227.602864 95.938853 228.298051 97.617184 229.53532 98.854453 
C 230.772588 100.091721 232.45092 100.786909 234.200682 100.786909 
L 234.200682 100.786909 
z
" style="fill: none; stroke: #d9d8d2; stroke-width: 0.6; stroke-linejoin: miter"/>
   </g>
   <g id="patch_12">
    <path d="M 179.218864 119.114182 
C 180.968625 119.114182 182.646957 118.418994 183.884226 117.181726 
C 185.121494 115.944457 185.816682 114.266125 185.816682 112.516364 
C 185.816682 110.766602 185.121494 109.08827 183.884226 107.851002 
C 182.646957 106.613733 180.968625 105.918545 179.218864 105.918545 
C 177.469102 105.918545 175.79077 106.613733 174.553502 107.851002 
C 173.316233 109.08827 172.621045 110.766602 172.621045 112.516364 
C 172.621045 114.266125 173.316233 115.944457 174.553502 117.181726 
C 175.79077 118.418994 177.469102 119.114182 179.218864 119.114182 
L 179.218864 119.114182 
z
" style="fill: none; stroke: #d9d8d2; stroke-width: 0.6; stroke-linejoin: miter"/>
   </g>
   <g id="patch_13">
    <path d="M 197.546136 119.114182 
C 199.295898 119.114182 200.97423 118.418994 202.211498 117.181726 
C 203.448767 115.944457 204.143955 114.266125 204.143955 112.516364 
C 204.143955 110.766602 203.448767 109.08827 202.211498 107.851002 
C 200.97423 106.613733 199.295898 105.918545 197.546136 105.918545 
C 195.796375 105.918545 194.118043 106.613733 192.880774 107.851002 
C 191.643506 109.08827 190.948318 110.766602 190.948318 112.516364 
C 190.948318 114.266125 191.643506 115.944457 192.880774 117.181726 
C 194.118043 118.418994 195.796375 119.114182 197.546136 119.114182 
L 197.546136 119.114182 
z
" style="fill: none; stroke: #d9d8d2; stroke-width: 0.6; stroke-linejoin: miter"/>
   </g>
   <g id="patch_14">
    <path d="M 234.200682 119.114182 
C 235.950444 119.114182 237.628775 118.418994 238.866044 117.181726 
C 240.103312 115.944457 240.7985 114.266125 240.7985 112.516364 
C 240.7985 110.766602 240.103312 109.08827 238.866044 107.851002 
C 237.628775 106.613733 235.950444 105.918545 234.200682 105.918545 
C 232.45092 105.918545 230.772588 106.613733 229.53532 107.851002 
C 228.298051 109.08827 227.602864 110.766602 227.602864 112.516364 
C 227.602864 114.266125 228.298051 115.944457 229.53532 117.181726 
C 230.772588 118.418994 232.45092 119.114182 234.200682 119.114182 
L 234.200682 119.114182 
z
" style="fill: none; stroke: #d9d8d2; stroke-width: 0.6; stroke-linejoin: miter"/>
   </g>
   <g id="patch_15">
    <path d="M 160.891591 137.441455 
C 162.641353 137.441455 164.319684 136.746267 165.556953 135.508998 
C 166.794221 134.27173 167.489409 132.593398 167.489409 130.843636 
C 167.489409 129.093875 166.794221 127.415543 165.556953 126.178274 
C 164.319684 124.941006 162.641353 124.245818 160.891591 124.245818 
C 159.141829 124.245818 157.463497 124.941006 156.226229 126.178274 
C 154.98896 127.415543 154.293773 129.093875 154.293773 130.843636 
C 154.293773 132.593398 154.98896 134.27173 156.226229 135.508998 
C 157.463497 136.746267 159.141829 137.441455 160.891591 137.441455 
L 160.891591 137.441455 
z
" style="fill: none; stroke: #d9d8d2; stroke-width: 0.6; stroke-linejoin: miter"/>
   </g>
   <g id="patch_16">
    <path d="M 197.546136 137.441455 
C 199.295898 137.441455 200.97423 136.746267 202.211498 135.508998 
C 203.448767 134.27173 204.143955 132.593398 204.143955 130.843636 
C 204.143955 129.093875 203.448767 127.415543 202.211498 126.178274 
C 200.97423 124.941006 199.295898 124.245818 197.546136 124.245818 
C 195.796375 124.245818 194.118043 124.941006 192.880774 126.178274 
C 191.643506 127.415543 190.948318 129.093875 190.948318 130.843636 
C 190.948318 132.593398 191.643506 134.27173 192.880774 135.508998 
C 194.118043 136.746267 195.796375 137.441455 197.546136 137.441455 
L 197.546136 137.441455 
z
" style="fill: none; stroke: #d9d8d2; stroke-width: 0.6; stroke-linejoin: miter"/>
   </g>
   <g id="patch_17">
    <path d="M 215.873409 137.441455 
C 217.623171 137.441455 219.301503 136.746267 220.538771 135.508998 
C 221.77604 134.27173 222.471227 132.593398 222.471227 130.843636 
C 222.471227 129.093875 221.77604 127.415543 220.538771 126.178274 
C 219.301503 124.941006 217.623171 124.245818 215.873409 124.245818 
C 214.123647 124.245818 212.445316 124.941006 211.208047 126.178274 
C 209.970779 127.415543 209.275591 129.093875 209.275591 130.843636 
C 209.275591 132.593398 209.970779 134.27173 211.208047 135.508998 
C 212.445316 136.746267 214.123647 137.441455 215.873409 137.441455 
L 215.873409 137.441455 
z
" style="fill: none; stroke: #d9d8d2; stroke-width: 0.6; stroke-linejoin: miter"/>
   </g>
   <g id="patch_18">
    <path d="M 234.200682 137.441455 
C 235.950444 137.441455 237.628775 136.746267 238.866044 135.508998 
C 240.103312 134.27173 240.7985 132.593398 240.7985 130.843636 
C 240.7985 129.093875 240.103312 127.415543 238.866044 126.178274 
C 237.628775 124.941006 235.950444 124.245818 234.200682 124.245818 
C 232.45092 124.245818 230.772588 124.941006 229.53532 126.178274 
C 228.298051 127.415543 227.602864 129.093875 227.602864 130.843636 
C 227.602864 132.593398 228.298051 134.27173 229.53532 135.508998 
C 230.772588 136.746267 232.45092 137.441455 234.200682 137.441455 
L 234.200682 137.441455 
z
" style="fill: none; stroke: #d9d8d2; stroke-width: 0.6; stroke-linejoin: miter"/>
   </g>
   <g id="patch_19">
    <path d="M 142.564318 155.768727 
C 144.31408 155.768727 145.992412 155.07354 147.22968 153.836271 
C 148.466949 152.599003 149.162136 150.920671 149.162136 149.170909 
C 149.162136 147.421147 148.466949 145.742816 147.22968 144.505547 
C 145.992412 143.268279 144.31408 142.573091 142.564318 142.573091 
C 140.814556 142.573091 139.136225 143.268279 137.898956 144.505547 
C 136.661688 145.742816 135.9665 147.421147 135.9665 149.170909 
C 135.9665 150.920671 136.661688 152.599003 137.898956 153.836271 
C 139.136225 155.07354 140.814556 155.768727 142.564318 155.768727 
L 142.564318 155.768727 
z
" style="fill: none; stroke: #d9d8d2; stroke-width: 0.6; stroke-linejoin: miter"/>
   </g>
   <g id="patch_20">
    <path d="M 160.891591 155.768727 
C 162.641353 155.768727 164.319684 155.07354 165.556953 153.836271 
C 166.794221 152.599003 167.489409 150.920671 167.489409 149.170909 
C 167.489409 147.421147 166.794221 145.742816 165.556953 144.505547 
C 164.319684 143.268279 162.641353 142.573091 160.891591 142.573091 
C 159.141829 142.573091 157.463497 143.268279 156.226229 144.505547 
C 154.98896 145.742816 154.293773 147.421147 154.293773 149.170909 
C 154.293773 150.920671 154.98896 152.599003 156.226229 153.836271 
C 157.463497 155.07354 159.141829 155.768727 160.891591 155.768727 
L 160.891591 155.768727 
z
" style="fill: none; stroke: #d9d8d2; stroke-width: 0.6; stroke-linejoin: miter"/>
   </g>
   <g id="patch_21">
    <path d="M 179.218864 155.768727 
C 180.968625 155.768727 182.646957 155.07354 183.884226 153.836271 
C 185.121494 152.599003 185.816682 150.920671 185.816682 149.170909 
C 185.816682 147.421147 185.121494 145.742816 183.884226 144.505547 
C 182.646957 143.268279 180.968625 142.573091 179.218864 142.573091 
C 177.469102 142.573091 175.79077 143.268279 174.553502 144.505547 
C 173.316233 145.742816 172.621045 147.421147 172.621045 149.170909 
C 172.621045 150.920671 173.316233 152.599003 174.553502 153.836271 
C 175.79077 155.07354 177.469102 155.768727 179.218864 155.768727 
L 179.218864 155.768727 
z
" style="fill: none; stroke: #d9d8d2; stroke-width: 0.6; stroke-linejoin: miter"/>
   </g>
   <g id="patch_22">
    <path d="M 197.546136 155.768727 
C 199.295898 155.768727 200.97423 155.07354 202.211498 153.836271 
C 203.448767 152.599003 204.143955 150.920671 204.143955 149.170909 
C 204.143955 147.421147 203.448767 145.742816 202.211498 144.505547 
C 200.97423 143.268279 199.295898 142.573091 197.546136 142.573091 
C 195.796375 142.573091 194.118043 143.268279 192.880774 144.505547 
C 191.643506 145.742816 190.948318 147.421147 190.948318 149.170909 
C 190.948318 150.920671 191.643506 152.599003 192.880774 153.836271 
C 194.118043 155.07354 195.796375 155.768727 197.546136 155.768727 
L 197.546136 155.768727 
z
" style="fill: none; stroke: #d9d8d2; stroke-width: 0.6; stroke-linejoin: miter"/>
   </g>
   <g id="patch_23">
    <path d="M 234.200682 155.768727 
C 235.950444 155.768727 237.628775 155.07354 238.866044 153.836271 
C 240.103312 152.599003 240.7985 150.920671 240.7985 149.170909 
C 240.7985 147.421147 240.103312 145.742816 238.866044 144.505547 
C 237.628775 143.268279 235.950444 142.573091 234.200682 142.573091 
C 232.45092 142.573091 230.772588 143.268279 229.53532 144.505547 
C 228.298051 145.742816 227.602864 147.421147 227.602864 149.170909 
C 227.602864 150.920671 228.298051 152.599003 229.53532 153.836271 
C 230.772588 155.07354 232.45092 155.768727 234.200682 155.768727 
L 234.200682 155.768727 
z
" style="fill: none; stroke: #d9d8d2; stroke-width: 0.6; stroke-linejoin: miter"/>
   </g>
   <g id="patch_24">
    <path d="M 142.564318 174.096 
C 144.31408 174.096 145.992412 173.400812 147.22968 172.163544 
C 148.466949 170.926275 149.162136 169.247944 149.162136 167.498182 
C 149.162136 165.74842 148.466949 164.070088 147.22968 162.83282 
C 145.992412 161.595551 144.31408 160.900364 142.564318 160.900364 
C 140.814556 160.900364 139.136225 161.595551 137.898956 162.83282 
C 136.661688 164.070088 135.9665 165.74842 135.9665 167.498182 
C 135.9665 169.247944 136.661688 170.926275 137.898956 172.163544 
C 139.136225 173.400812 140.814556 174.096 142.564318 174.096 
L 142.564318 174.096 
z
" style="fill: none; stroke: #d9d8d2; stroke-width: 0.6; stroke-linejoin: miter"/>
   </g>
   <g id="patch_25">
    <path d="M 160.891591 174.096 
C 162.641353 174.096 164.319684 173.400812 165.556953 172.163544 
C 166.794221 170.926275 167.489409 169.247944 167.489409 167.498182 
C 167.489409 165.74842 166.794221 164.070088 165.556953 162.83282 
C 164.319684 161.595551 162.641353 160.900364 160.891591 160.900364 
C 159.141829 160.900364 157.463497 161.595551 156.226229 162.83282 
C 154.98896 164.070088 154.293773 165.74842 154.293773 167.498182 
C 154.293773 169.247944 154.98896 170.926275 156.226229 172.163544 
C 157.463497 173.400812 159.141829 174.096 160.891591 174.096 
L 160.891591 174.096 
z
" style="fill: none; stroke: #d9d8d2; stroke-width: 0.6; stroke-linejoin: miter"/>
   </g>
   <g id="patch_26">
    <path d="M 179.218864 174.096 
C 180.968625 174.096 182.646957 173.400812 183.884226 172.163544 
C 185.121494 170.926275 185.816682 169.247944 185.816682 167.498182 
C 185.816682 165.74842 185.121494 164.070088 183.884226 162.83282 
C 182.646957 161.595551 180.968625 160.900364 179.218864 160.900364 
C 177.469102 160.900364 175.79077 161.595551 174.553502 162.83282 
C 173.316233 164.070088 172.621045 165.74842 172.621045 167.498182 
C 172.621045 169.247944 173.316233 170.926275 174.553502 172.163544 
C 175.79077 173.400812 177.469102 174.096 179.218864 174.096 
L 179.218864 174.096 
z
" style="fill: none; stroke: #d9d8d2; stroke-width: 0.6; stroke-linejoin: miter"/>
   </g>
   <g id="patch_27">
    <path d="M 197.546136 174.096 
C 199.295898 174.096 200.97423 173.400812 202.211498 172.163544 
C 203.448767 170.926275 204.143955 169.247944 204.143955 167.498182 
C 204.143955 165.74842 203.448767 164.070088 202.211498 162.83282 
C 200.97423 161.595551 199.295898 160.900364 197.546136 160.900364 
C 195.796375 160.900364 194.118043 161.595551 192.880774 162.83282 
C 191.643506 164.070088 190.948318 165.74842 190.948318 167.498182 
C 190.948318 169.247944 191.643506 170.926275 192.880774 172.163544 
C 194.118043 173.400812 195.796375 174.096 197.546136 174.096 
L 197.546136 174.096 
z
" style="fill: none; stroke: #d9d8d2; stroke-width: 0.6; stroke-linejoin: miter"/>
   </g>
   <g id="patch_28">
    <path d="M 234.200682 174.096 
C 235.950444 174.096 237.628775 173.400812 238.866044 172.163544 
C 240.103312 170.926275 240.7985 169.247944 240.7985 167.498182 
C 240.7985 165.74842 240.103312 164.070088 238.866044 162.83282 
C 237.628775 161.595551 235.950444 160.900364 234.200682 160.900364 
C 232.45092 160.900364 230.772588 161.595551 229.53532 162.83282 
C 228.298051 164.070088 227.602864 165.74842 227.602864 167.498182 
C 227.602864 169.247944 228.298051 170.926275 229.53532 172.163544 
C 230.772588 173.400812 232.45092 174.096 234.200682 174.096 
L 234.200682 174.096 
z
" style="fill: none; stroke: #d9d8d2; stroke-width: 0.6; stroke-linejoin: miter"/>
   </g>
   <g id="patch_29">
    <path d="M 258.026136 137.441455 
C 259.775898 137.441455 261.45423 136.746267 262.691498 135.508998 
C 263.928767 134.27173 264.623955 132.593398 264.623955 130.843636 
C 264.623955 129.093875 263.928767 127.415543 262.691498 126.178274 
C 261.45423 124.941006 259.775898 124.245818 258.026136 124.245818 
C 256.276375 124.245818 254.598043 124.941006 253.360774 126.178274 
C 252.123506 127.415543 251.428318 129.093875 251.428318 130.843636 
C 251.428318 132.593398 252.123506 134.27173 253.360774 135.508998 
C 254.598043 136.746267 256.276375 137.441455 258.026136 137.441455 
L 258.026136 137.441455 
z
" style="fill: none; stroke: #d9d8d2; stroke-width: 0.6; stroke-linejoin: miter"/>
   </g>
   <g id="patch_30">
    <path d="M 160.891591 82.459636 
C 162.641353 82.459636 164.319684 81.764449 165.556953 80.52718 
C 166.794221 79.289912 167.489409 77.61158 167.489409 75.861818 
C 167.489409 74.112056 166.794221 72.433725 165.556953 71.196456 
C 164.319684 69.959188 162.641353 69.264 160.891591 69.264 
C 159.141829 69.264 157.463497 69.959188 156.226229 71.196456 
C 154.98896 72.433725 154.293773 74.112056 154.293773 75.861818 
C 154.293773 77.61158 154.98896 79.289912 156.226229 80.52718 
C 157.463497 81.764449 159.141829 82.459636 160.891591 82.459636 
z
" style="fill: #4a3aa7; stroke: #4a3aa7; stroke-width: 0.6; stroke-linejoin: miter"/>
   </g>
   <g id="patch_31">
    <path d="M 215.873409 82.459636 
C 217.623171 82.459636 219.301503 81.764449 220.538771 80.52718 
C 221.77604 79.289912 222.471227 77.61158 222.471227 75.861818 
C 222.471227 74.112056 221.77604 72.433725 220.538771 71.196456 
C 219.301503 69.959188 217.623171 69.264 215.873409 69.264 
C 214.123647 69.264 212.445316 69.959188 211.208047 71.196456 
C 209.970779 72.433725 209.275591 74.112056 209.275591 75.861818 
C 209.275591 77.61158 209.970779 79.289912 211.208047 80.52718 
C 212.445316 81.764449 214.123647 82.459636 215.873409 82.459636 
z
" style="fill: #ffffff; stroke: #4a3aa7; stroke-width: 1.1; stroke-linejoin: miter"/>
   </g>
   <g id="patch_32">
    <path d="M 197.546136 100.786909 
C 199.295898 100.786909 200.97423 100.091721 202.211498 98.854453 
C 203.448767 97.617184 204.143955 95.938853 204.143955 94.189091 
C 204.143955 92.439329 203.448767 90.760997 202.211498 89.523729 
C 200.97423 88.28646 199.295898 87.591273 197.546136 87.591273 
C 195.796375 87.591273 194.118043 88.28646 192.880774 89.523729 
C 191.643506 90.760997 190.948318 92.439329 190.948318 94.189091 
C 190.948318 95.938853 191.643506 97.617184 192.880774 98.854453 
C 194.118043 100.091721 195.796375 100.786909 197.546136 100.786909 
z
" style="fill: #4a3aa7; stroke: #4a3aa7; stroke-width: 0.6; stroke-linejoin: miter"/>
   </g>
   <g id="patch_33">
    <path d="M 142.564318 119.114182 
C 144.31408 119.114182 145.992412 118.418994 147.22968 117.181726 
C 148.466949 115.944457 149.162136 114.266125 149.162136 112.516364 
C 149.162136 110.766602 148.466949 109.08827 147.22968 107.851002 
C 145.992412 106.613733 144.31408 105.918545 142.564318 105.918545 
C 140.814556 105.918545 139.136225 106.613733 137.898956 107.851002 
C 136.661688 109.08827 135.9665 110.766602 135.9665 112.516364 
C 135.9665 114.266125 136.661688 115.944457 137.898956 117.181726 
C 139.136225 118.418994 140.814556 119.114182 142.564318 119.114182 
z
" style="fill: #ffffff; stroke: #4a3aa7; stroke-width: 1.1; stroke-linejoin: miter"/>
   </g>
   <g id="patch_34">
    <path d="M 160.891591 119.114182 
C 162.641353 119.114182 164.319684 118.418994 165.556953 117.181726 
C 166.794221 115.944457 167.489409 114.266125 167.489409 112.516364 
C 167.489409 110.766602 166.794221 109.08827 165.556953 107.851002 
C 164.319684 106.613733 162.641353 105.918545 160.891591 105.918545 
C 159.141829 105.918545 157.463497 106.613733 156.226229 107.851002 
C 154.98896 109.08827 154.293773 110.766602 154.293773 112.516364 
C 154.293773 114.266125 154.98896 115.944457 156.226229 117.181726 
C 157.463497 118.418994 159.141829 119.114182 160.891591 119.114182 
z
" style="fill: #ffffff; stroke: #898781; stroke-width: 0.9; stroke-linejoin: miter"/>
   </g>
   <g id="patch_35">
    <path d="M 215.873409 119.114182 
C 217.623171 119.114182 219.301503 118.418994 220.538771 117.181726 
C 221.77604 115.944457 222.471227 114.266125 222.471227 112.516364 
C 222.471227 110.766602 221.77604 109.08827 220.538771 107.851002 
C 219.301503 106.613733 217.623171 105.918545 215.873409 105.918545 
C 214.123647 105.918545 212.445316 106.613733 211.208047 107.851002 
C 209.970779 109.08827 209.275591 110.766602 209.275591 112.516364 
C 209.275591 114.266125 209.970779 115.944457 211.208047 117.181726 
C 212.445316 118.418994 214.123647 119.114182 215.873409 119.114182 
z
" style="fill: #ffffff; stroke: #4a3aa7; stroke-width: 1.1; stroke-linejoin: miter"/>
   </g>
   <g id="patch_36">
    <path d="M 142.564318 137.441455 
C 144.31408 137.441455 145.992412 136.746267 147.22968 135.508998 
C 148.466949 134.27173 149.162136 132.593398 149.162136 130.843636 
C 149.162136 129.093875 148.466949 127.415543 147.22968 126.178274 
C 145.992412 124.941006 144.31408 124.245818 142.564318 124.245818 
C 140.814556 124.245818 139.136225 124.941006 137.898956 126.178274 
C 136.661688 127.415543 135.9665 129.093875 135.9665 130.843636 
C 135.9665 132.593398 136.661688 134.27173 137.898956 135.508998 
C 139.136225 136.746267 140.814556 137.441455 142.564318 137.441455 
z
" style="fill: #ffffff; stroke: #4a3aa7; stroke-width: 1.1; stroke-linejoin: miter"/>
   </g>
   <g id="patch_37">
    <path d="M 179.218864 137.441455 
C 180.968625 137.441455 182.646957 136.746267 183.884226 135.508998 
C 185.121494 134.27173 185.816682 132.593398 185.816682 130.843636 
C 185.816682 129.093875 185.121494 127.415543 183.884226 126.178274 
C 182.646957 124.941006 180.968625 124.245818 179.218864 124.245818 
C 177.469102 124.245818 175.79077 124.941006 174.553502 126.178274 
C 173.316233 127.415543 172.621045 129.093875 172.621045 130.843636 
C 172.621045 132.593398 173.316233 134.27173 174.553502 135.508998 
C 175.79077 136.746267 177.469102 137.441455 179.218864 137.441455 
z
" style="fill: #ffffff; stroke: #4a3aa7; stroke-width: 1.1; stroke-linejoin: miter"/>
   </g>
   <g id="patch_38">
    <path d="M 215.873409 155.768727 
C 217.623171 155.768727 219.301503 155.07354 220.538771 153.836271 
C 221.77604 152.599003 222.471227 150.920671 222.471227 149.170909 
C 222.471227 147.421147 221.77604 145.742816 220.538771 144.505547 
C 219.301503 143.268279 217.623171 142.573091 215.873409 142.573091 
C 214.123647 142.573091 212.445316 143.268279 211.208047 144.505547 
C 209.970779 145.742816 209.275591 147.421147 209.275591 149.170909 
C 209.275591 150.920671 209.970779 152.599003 211.208047 153.836271 
C 212.445316 155.07354 214.123647 155.768727 215.873409 155.768727 
z
" style="fill: #ffffff; stroke: #4a3aa7; stroke-width: 1.1; stroke-linejoin: miter"/>
   </g>
   <g id="patch_39">
    <path d="M 215.873409 174.096 
C 217.623171 174.096 219.301503 173.400812 220.538771 172.163544 
C 221.77604 170.926275 222.471227 169.247944 222.471227 167.498182 
C 222.471227 165.74842 221.77604 164.070088 220.538771 162.83282 
C 219.301503 161.595551 217.623171 160.900364 215.873409 160.900364 
C 214.123647 160.900364 212.445316 161.595551 211.208047 162.83282 
C 209.970779 164.070088 209.275591 165.74842 209.275591 167.498182 
C 209.275591 169.247944 209.970779 170.926275 211.208047 172.163544 
C 212.445316 173.400812 214.123647 174.096 215.873409 174.096 
z
" style="fill: #ffffff; stroke: #4a3aa7; stroke-width: 1.1; stroke-linejoin: miter"/>
   </g>
   <g id="patch_40">
    <path d="M 258.026136 82.459636 
C 259.775898 82.459636 261.45423 81.764449 262.691498 80.52718 
C 263.928767 79.289912 264.623955 77.61158 264.623955 75.861818 
C 264.623955 74.112056 263.928767 72.433725 262.691498 71.196456 
C 261.45423 69.959188 259.775898 69.264 258.026136 69.264 
C 256.276375 69.264 254.598043 69.959188 253.360774 71.196456 
C 252.123506 72.433725 251.428318 74.112056 251.428318 75.861818 
C 251.428318 77.61158 252.123506 79.289912 253.360774 80.52718 
C 254.598043 81.764449 256.276375 82.459636 258.026136 82.459636 
z
" style="fill: #4a3aa7; stroke: #4a3aa7; stroke-width: 0.6; stroke-linejoin: miter"/>
   </g>
   <g id="text_13">
    <!-- confirmed -->
    <g style="fill: #52514e" transform="translate(270.561991 78.069318) scale(0.08 -0.08)">
     <defs>
      <path id="DejaVuSans-66" d="M 2375 4863 
L 2375 4384 
L 1825 4384 
Q 1516 4384 1395 4259 
Q 1275 4134 1275 3809 
L 1275 3500 
L 2222 3500 
L 2222 3053 
L 1275 3053 
L 1275 0 
L 697 0 
L 697 3053 
L 147 3053 
L 147 3500 
L 697 3500 
L 697 3744 
Q 697 4328 969 4595 
Q 1241 4863 1831 4863 
L 2375 4863 
z
" transform="scale(0.015625)"/>
     </defs>
     <use xlink:href="#DejaVuSans-63"/>
     <use xlink:href="#DejaVuSans-6f" transform="translate(54.980469 0)"/>
     <use xlink:href="#DejaVuSans-6e" transform="translate(116.162109 0)"/>
     <use xlink:href="#DejaVuSans-66" transform="translate(179.541016 0)"/>
     <use xlink:href="#DejaVuSans-69" transform="translate(214.746094 0)"/>
     <use xlink:href="#DejaVuSans-72" transform="translate(242.529297 0)"/>
     <use xlink:href="#DejaVuSans-6d" transform="translate(281.892578 0)"/>
     <use xlink:href="#DejaVuSans-65" transform="translate(379.304688 0)"/>
     <use xlink:href="#DejaVuSans-64" transform="translate(440.828125 0)"/>
    </g>
   </g>
   <g id="patch_41">
    <path d="M 258.026136 100.786909 
C 259.775898 100.786909 261.45423 100.091721 262.691498 98.854453 
C 263.928767 97.617184 264.623955 95.938853 264.623955 94.189091 
C 264.623955 92.439329 263.928767 90.760997 262.691498 89.523729 
C 261.45423 88.28646 259.775898 87.591273 258.026136 87.591273 
C 256.276375 87.591273 254.598043 88.28646 253.360774 89.523729 
C 252.123506 90.760997 251.428318 92.439329 251.428318 94.189091 
C 251.428318 95.938853 252.123506 97.617184 253.360774 98.854453 
C 254.598043 100.091721 256.276375 100.786909 258.026136 100.786909 
z
" style="fill: #ffffff; stroke: #4a3aa7; stroke-width: 1.1; stroke-linejoin: miter"/>
   </g>
   <g id="text_14">
    <!-- domain-only (HMM signature, no BLAST support) -->
    <g style="fill: #52514e" transform="translate(270.561991 96.396591) scale(0.08 -0.08)">
     <defs>
      <path id="DejaVuSans-2d" d="M 313 2009 
L 1997 2009 
L 1997 1497 
L 313 1497 
L 313 2009 
z
" transform="scale(0.015625)"/>
      <path id="DejaVuSans-79" d="M 2059 -325 
Q 1816 -950 1584 -1140 
Q 1353 -1331 966 -1331 
L 506 -1331 
L 506 -850 
L 844 -850 
Q 1081 -850 1212 -737 
Q 1344 -625 1503 -206 
L 1606 56 
L 191 3500 
L 800 3500 
L 1894 763 
L 2988 3500 
L 3597 3500 
L 2059 -325 
z
" transform="scale(0.015625)"/>
      <path id="DejaVuSans-20" transform="scale(0.015625)"/>
      <path id="DejaVuSans-28" d="M 1984 4856 
Q 1566 4138 1362 3434 
Q 1159 2731 1159 2009 
Q 1159 1288 1364 580 
Q 1569 -128 1984 -844 
L 1484 -844 
Q 1016 -109 783 600 
Q 550 1309 550 2009 
Q 550 2706 781 3412 
Q 1013 4119 1484 4856 
L 1984 4856 
z
" transform="scale(0.015625)"/>
      <path id="DejaVuSans-48" d="M 628 4666 
L 1259 4666 
L 1259 2753 
L 3553 2753 
L 3553 4666 
L 4184 4666 
L 4184 0 
L 3553 0 
L 3553 2222 
L 1259 2222 
L 1259 0 
L 628 0 
L 628 4666 
z
" transform="scale(0.015625)"/>
      <path id="DejaVuSans-4d" d="M 628 4666 
L 1569 4666 
L 2759 1491 
L 3956 4666 
L 4897 4666 
L 4897 0 
L 4281 0 
L 4281 4097 
L 3078 897 
L 2444 897 
L 1241 4097 
L 1241 0 
L 628 0 
L 628 4666 
z
" transform="scale(0.015625)"/>
      <path id="DejaVuSans-2c" d="M 750 794 
L 1409 794 
L 1409 256 
L 897 -744 
L 494 -744 
L 750 256 
L 750 794 
z
" transform="scale(0.015625)"/>
      <path id="DejaVuSans-4c" d="M 628 4666 
L 1259 4666 
L 1259 531 
L 3531 531 
L 3531 0 
L 628 0 
L 628 4666 
z
" transform="scale(0.015625)"/>
      <path id="DejaVuSans-53" d="M 3425 4513 
L 3425 3897 
Q 3066 4069 2747 4153 
Q 2428 4238 2131 4238 
Q 1616 4238 1336 4038 
Q 1056 3838 1056 3469 
Q 1056 3159 1242 3001 
Q 1428 2844 1947 2747 
L 2328 2669 
Q 3034 2534 3370 2195 
Q 3706 1856 3706 1288 
Q 3706 609 3251 259 
Q 2797 -91 1919 -91 
Q 1588 -91 1214 -16 
Q 841 59 441 206 
L 441 856 
Q 825 641 1194 531 
Q 1563 422 1919 422 
Q 2459 422 2753 634 
Q 3047 847 3047 1241 
Q 3047 1584 2836 1778 
Q 2625 1972 2144 2069 
L 1759 2144 
Q 1053 2284 737 2584 
Q 422 2884 422 3419 
Q 422 4038 858 4394 
Q 1294 4750 2059 4750 
Q 2388 4750 2728 4690 
Q 3069 4631 3425 4513 
z
" transform="scale(0.015625)"/>
      <path id="DejaVuSans-29" d="M 513 4856 
L 1013 4856 
Q 1481 4119 1714 3412 
Q 1947 2706 1947 2009 
Q 1947 1309 1714 600 
Q 1481 -109 1013 -844 
L 513 -844 
Q 928 -128 1133 580 
Q 1338 1288 1338 2009 
Q 1338 2731 1133 3434 
Q 928 4138 513 4856 
z
" transform="scale(0.015625)"/>
     </defs>
     <use xlink:href="#DejaVuSans-64"/>
     <use xlink:href="#DejaVuSans-6f" transform="translate(63.476562 0)"/>
     <use xlink:href="#DejaVuSans-6d" transform="translate(124.658203 0)"/>
     <use xlink:href="#DejaVuSans-61" transform="translate(222.070312 0)"/>
     <use xlink:href="#DejaVuSans-69" transform="translate(283.349609 0)"/>
     <use xlink:href="#DejaVuSans-6e" transform="translate(311.132812 0)"/>
     <use xlink:href="#DejaVuSans-2d" transform="translate(374.511719 0)"/>
     <use xlink:href="#DejaVuSans-6f" transform="translate(412.470703 0)"/>
     <use xlink:href="#DejaVuSans-6e" transform="translate(473.652344 0)"/>
     <use xlink:href="#DejaVuSans-6c" transform="translate(537.03125 0)"/>
     <use xlink:href="#DejaVuSans-79" transform="translate(564.814453 0)"/>
     <use xlink:href="#DejaVuSans-20" transform="translate(623.994141 0)"/>
     <use xlink:href="#DejaVuSans-28" transform="translate(655.78125 0)"/>
     <use xlink:href="#DejaVuSans-48" transform="translate(694.794922 0)"/>
     <use xlink:href="#DejaVuSans-4d" transform="translate(769.990234 0)"/>
     <use xlink:href="#DejaVuSans-4d" transform="translate(856.269531 0)"/>
     <use xlink:href="#DejaVuSans-20" transform="translate(942.548828 0)"/>
     <use xlink:href="#DejaVuSans-73" transform="translate(974.335938 0)"/>
     <use xlink:href="#DejaVuSans-69" transform="translate(1026.435547 0)"/>
     <use xlink:href="#DejaVuSans-67" transform="translate(1054.21875 0)"/>
     <use xlink:href="#DejaVuSans-6e" transform="translate(1117.695312 0)"/>
     <use xlink:href="#DejaVuSans-61" transform="translate(1181.074219 0)"/>
     <use xlink:href="#DejaVuSans-74" transform="translate(1242.353516 0)"/>
     <use xlink:href="#DejaVuSans-75" transform="translate(1281.5625 0)"/>
     <use xlink:href="#DejaVuSans-72" transform="translate(1344.941406 0)"/>
     <use xlink:href="#DejaVuSans-65" transform="translate(1383.804688 0)"/>
     <use xlink:href="#DejaVuSans-2c" transform="translate(1445.328125 0)"/>
     <use xlink:href="#DejaVuSans-20" transform="translate(1477.115234 0)"/>
     <use xlink:href="#DejaVuSans-6e" transform="translate(1508.902344 0)"/>
     <use xlink:href="#DejaVuSans-6f" transform="translate(1572.28125 0)"/>
     <use xlink:href="#DejaVuSans-20" transform="translate(1633.462891 0)"/>
     <use xlink:href="#DejaVuSans-42" transform="translate(1665.25 0)"/>
     <use xlink:href="#DejaVuSans-4c" transform="translate(1733.853516 0)"/>
     <use xlink:href="#DejaVuSans-41" transform="translate(1791.816406 0)"/>
     <use xlink:href="#DejaVuSans-53" transform="translate(1860.224609 0)"/>
     <use xlink:href="#DejaVuSans-54" transform="translate(1923.701172 0)"/>
     <use xlink:href="#DejaVuSans-20" transform="translate(1984.785156 0)"/>
     <use xlink:href="#DejaVuSans-73" transform="translate(2016.572266 0)"/>
     <use xlink:href="#DejaVuSans-75" transform="translate(2068.671875 0)"/>
     <use xlink:href="#DejaVuSans-70" transform="translate(2132.050781 0)"/>
     <use xlink:href="#DejaVuSans-70" transform="translate(2195.527344 0)"/>
     <use xlink:href="#DejaVuSans-6f" transform="translate(2259.003906 0)"/>
     <use xlink:href="#DejaVuSans-72" transform="translate(2320.185547 0)"/>
     <use xlink:href="#DejaVuSans-74" transform="translate(2361.298828 0)"/>
     <use xlink:href="#DejaVuSans-29" transform="translate(2400.507812 0)"/>
    </g>
   </g>
   <g id="patch_42">
    <path d="M 258.026136 119.114182 
C 259.775898 119.114182 261.45423 118.418994 262.691498 117.181726 
C 263.928767 115.944457 264.623955 114.266125 264.623955 112.516364 
C 264.623955 110.766602 263.928767 109.08827 262.691498 107.851002 
C 261.45423 106.613733 259.775898 105.918545 258.026136 105.918545 
C 256.276375 105.918545 254.598043 106.613733 253.360774 107.851002 
C 252.123506 109.08827 251.428318 110.766602 251.428318 112.516364 
C 251.428318 114.266125 252.123506 115.944457 253.360774 117.181726 
C 254.598043 118.418994 256.276375 119.114182 258.026136 119.114182 
z
" style="fill: #ffffff; stroke: #898781; stroke-width: 0.9; stroke-linejoin: miter"/>
   </g>
   <g id="text_15">
    <!-- disqualified (failed the homology-trap gate) -->
    <g style="fill: #52514e" transform="translate(270.561991 114.723864) scale(0.08 -0.08)">
     <defs>
      <path id="DejaVuSans-71" d="M 947 1747 
Q 947 1113 1208 752 
Q 1469 391 1925 391 
Q 2381 391 2643 752 
Q 2906 1113 2906 1747 
Q 2906 2381 2643 2742 
Q 2381 3103 1925 3103 
Q 1469 3103 1208 2742 
Q 947 2381 947 1747 
z
M 2906 525 
Q 2725 213 2448 61 
Q 2172 -91 1784 -91 
Q 1150 -91 751 415 
Q 353 922 353 1747 
Q 353 2572 751 3078 
Q 1150 3584 1784 3584 
Q 2172 3584 2448 3432 
Q 2725 3281 2906 2969 
L 2906 3500 
L 3481 3500 
L 3481 -1331 
L 2906 -1331 
L 2906 525 
z
" transform="scale(0.015625)"/>
     </defs>
     <use xlink:href="#DejaVuSans-64"/>
     <use xlink:href="#DejaVuSans-69" transform="translate(63.476562 0)"/>
     <use xlink:href="#DejaVuSans-73" transform="translate(91.259766 0)"/>
     <use xlink:href="#DejaVuSans-71" transform="translate(143.359375 0)"/>
     <use xlink:href="#DejaVuSans-75" transform="translate(206.835938 0)"/>
     <use xlink:href="#DejaVuSans-61" transform="translate(270.214844 0)"/>
     <use xlink:href="#DejaVuSans-6c" transform="translate(331.494141 0)"/>
     <use xlink:href="#DejaVuSans-69" transform="translate(359.277344 0)"/>
     <use xlink:href="#DejaVuSans-66" transform="translate(387.060547 0)"/>
     <use xlink:href="#DejaVuSans-69" transform="translate(422.265625 0)"/>
     <use xlink:href="#DejaVuSans-65" transform="translate(450.048828 0)"/>
     <use xlink:href="#DejaVuSans-64" transform="translate(511.572266 0)"/>
     <use xlink:href="#DejaVuSans-20" transform="translate(575.048828 0)"/>
     <use xlink:href="#DejaVuSans-28" transform="translate(606.835938 0)"/>
     <use xlink:href="#DejaVuSans-66" transform="translate(645.849609 0)"/>
     <use xlink:href="#DejaVuSans-61" transform="translate(681.054688 0)"/>
     <use xlink:href="#DejaVuSans-69" transform="translate(742.333984 0)"/>
     <use xlink:href="#DejaVuSans-6c" transform="translate(770.117188 0)"/>
     <use xlink:href="#DejaVuSans-65" transform="translate(797.900391 0)"/>
     <use xlink:href="#DejaVuSans-64" transform="translate(859.423828 0)"/>
     <use xlink:href="#DejaVuSans-20" transform="translate(922.900391 0)"/>
     <use xlink:href="#DejaVuSans-74" transform="translate(954.6875 0)"/>
     <use xlink:href="#DejaVuSans-68" transform="translate(993.896484 0)"/>
     <use xlink:href="#DejaVuSans-65" transform="translate(1057.275391 0)"/>
     <use xlink:href="#DejaVuSans-20" transform="translate(1118.798828 0)"/>
     <use xlink:href="#DejaVuSans-68" transform="translate(1150.585938 0)"/>
     <use xlink:href="#DejaVuSans-6f" transform="translate(1213.964844 0)"/>
     <use xlink:href="#DejaVuSans-6d" transform="translate(1275.146484 0)"/>
     <use xlink:href="#DejaVuSans-6f" transform="translate(1372.558594 0)"/>
     <use xlink:href="#DejaVuSans-6c" transform="translate(1433.740234 0)"/>
     <use xlink:href="#DejaVuSans-6f" transform="translate(1461.523438 0)"/>
     <use xlink:href="#DejaVuSans-67" transform="translate(1522.705078 0)"/>
     <use xlink:href="#DejaVuSans-79" transform="translate(1586.181641 0)"/>
     <use xlink:href="#DejaVuSans-2d" transform="translate(1643.611328 0)"/>
     <use xlink:href="#DejaVuSans-74" transform="translate(1679.695312 0)"/>
     <use xlink:href="#DejaVuSans-72" transform="translate(1718.904297 0)"/>
     <use xlink:href="#DejaVuSans-61" transform="translate(1760.017578 0)"/>
     <use xlink:href="#DejaVuSans-70" transform="translate(1821.296875 0)"/>
     <use xlink:href="#DejaVuSans-20" transform="translate(1884.773438 0)"/>
     <use xlink:href="#DejaVuSans-67" transform="translate(1916.560547 0)"/>
     <use xlink:href="#DejaVuSans-61" transform="translate(1980.037109 0)"/>
     <use xlink:href="#DejaVuSans-74" transform="translate(2041.316406 0)"/>
     <use xlink:href="#DejaVuSans-65" transform="translate(2080.525391 0)"/>
     <use xlink:href="#DejaVuSans-29" transform="translate(2142.048828 0)"/>
    </g>
   </g>
   <g id="text_16">
    <!-- absent -->
    <g style="fill: #52514e" transform="translate(270.561991 133.051136) scale(0.08 -0.08)">
     <use xlink:href="#DejaVuSans-61"/>
     <use xlink:href="#DejaVuSans-62" transform="translate(61.279297 0)"/>
     <use xlink:href="#DejaVuSans-73" transform="translate(124.755859 0)"/>
     <use xlink:href="#DejaVuSans-65" transform="translate(176.855469 0)"/>
     <use xlink:href="#DejaVuSans-6e" transform="translate(238.378906 0)"/>
     <use xlink:href="#DejaVuSans-74" transform="translate(301.757812 0)"/>
    </g>
   </g>
   <g id="patch_43">
    <path d="M 215.873409 69.264 
C 214.12423 69.264 212.444903 69.9596 211.208047 71.196456 
C 209.971191 72.433313 209.275591 74.112639 209.275591 75.861818 
C 209.275591 77.610997 209.971191 79.290324 211.208047 80.52718 
C 212.444903 81.764037 214.12423 82.459636 215.873409 82.459636 
L 215.873409 75.861818 
z
" style="fill: #4a3aa7"/>
   </g>
   <g id="patch_44">
    <path d="M 142.564318 105.918545 
C 140.815139 105.918545 139.135813 106.614145 137.898956 107.851002 
C 136.6621 109.087858 135.9665 110.767185 135.9665 112.516364 
C 135.9665 114.265543 136.6621 115.944869 137.898956 117.181726 
C 139.135813 118.418582 140.815139 119.114182 142.564318 119.114182 
L 142.564318 112.516364 
z
" style="fill: #4a3aa7"/>
   </g>
   <g id="line2d_19">
    <path d="M 158.120507 115.287447 
L 163.662675 109.74528 
" style="fill: none; stroke: #898781; stroke-width: 0.9; stroke-linecap: round"/>
   </g>
   <g id="line2d_20">
    <path d="M 158.120507 109.74528 
L 163.662675 115.287447 
" style="fill: none; stroke: #898781; stroke-width: 0.9; stroke-linecap: round"/>
   </g>
   <g id="patch_45">
    <path d="M 215.873409 105.918545 
C 214.12423 105.918545 212.444903 106.614145 211.208047 107.851002 
C 209.971191 109.087858 209.275591 110.767185 209.275591 112.516364 
C 209.275591 114.265543 209.971191 115.944869 211.208047 117.181726 
C 212.444903 118.418582 214.12423 119.114182 215.873409 119.114182 
L 215.873409 112.516364 
z
" style="fill: #4a3aa7"/>
   </g>
   <g id="patch_46">
    <path d="M 142.564318 124.245818 
C 140.815139 124.245818 139.135813 124.941418 137.898956 126.178274 
C 136.6621 127.415131 135.9665 129.094457 135.9665 130.843636 
C 135.9665 132.592815 136.6621 134.272142 137.898956 135.508998 
C 139.135813 136.745855 140.815139 137.441455 142.564318 137.441455 
L 142.564318 130.843636 
z
" style="fill: #4a3aa7"/>
   </g>
   <g id="patch_47">
    <path d="M 179.218864 124.245818 
C 177.469685 124.245818 175.790358 124.941418 174.553502 126.178274 
C 173.316645 127.415131 172.621045 129.094457 172.621045 130.843636 
C 172.621045 132.592815 173.316645 134.272142 174.553502 135.508998 
C 175.790358 136.745855 177.469685 137.441455 179.218864 137.441455 
L 179.218864 130.843636 
z
" style="fill: #4a3aa7"/>
   </g>
   <g id="patch_48">
    <path d="M 215.873409 142.573091 
C 214.12423 142.573091 212.444903 143.268691 211.208047 144.505547 
C 209.971191 145.742403 209.275591 147.42173 209.275591 149.170909 
C 209.275591 150.920088 209.971191 152.599415 211.208047 153.836271 
C 212.444903 155.073127 214.12423 155.768727 215.873409 155.768727 
L 215.873409 149.170909 
z
" style="fill: #4a3aa7"/>
   </g>
   <g id="patch_49">
    <path d="M 215.873409 160.900364 
C 214.12423 160.900364 212.444903 161.595963 211.208047 162.83282 
C 209.971191 164.069676 209.275591 165.749003 209.275591 167.498182 
C 209.275591 169.247361 209.971191 170.926687 211.208047 172.163544 
C 212.444903 173.4004 214.12423 174.096 215.873409 174.096 
L 215.873409 167.498182 
z
" style="fill: #4a3aa7"/>
   </g>
   <g id="patch_50">
    <path d="M 258.026136 87.591273 
C 256.276957 87.591273 254.597631 88.286873 253.360774 89.523729 
C 252.123918 90.760585 251.428318 92.439912 251.428318 94.189091 
C 251.428318 95.93827 252.123918 97.617597 253.360774 98.854453 
C 254.597631 100.091309 256.276957 100.786909 258.026136 100.786909 
L 258.026136 94.189091 
z
" style="fill: #4a3aa7"/>
   </g>
   <g id="line2d_21">
    <path d="M 255.255053 115.287447 
L 260.79722 109.74528 
" style="fill: none; stroke: #898781; stroke-width: 0.9; stroke-linecap: round"/>
   </g>
   <g id="line2d_22">
    <path d="M 255.255053 109.74528 
L 260.79722 115.287447 
" style="fill: none; stroke: #898781; stroke-width: 0.9; stroke-linecap: round"/>
   </g>
  </g>
  <g id="text_17">
   <!-- Assimilatory NO₃⁻/NO₂⁻ reduction — 6 genes · 6 genomes -->
   <g style="fill: #0b0b0b" transform="translate(97.6625 17.077969) scale(0.13 -0.13)">
    <defs>
     <path id="DejaVuSans-Bold-41" d="M 3419 850 
L 1538 850 
L 1241 0 
L 31 0 
L 1759 4666 
L 3194 4666 
L 4922 0 
L 3713 0 
L 3419 850 
z
M 1838 1716 
L 3116 1716 
L 2478 3572 
L 1838 1716 
z
" transform="scale(0.015625)"/>
     <path id="DejaVuSans-Bold-73" d="M 3272 3391 
L 3272 2541 
Q 2913 2691 2578 2766 
Q 2244 2841 1947 2841 
Q 1628 2841 1473 2761 
Q 1319 2681 1319 2516 
Q 1319 2381 1436 2309 
Q 1553 2238 1856 2203 
L 2053 2175 
Q 2913 2066 3209 1816 
Q 3506 1566 3506 1031 
Q 3506 472 3093 190 
Q 2681 -91 1863 -91 
Q 1516 -91 1145 -36 
Q 775 19 384 128 
L 384 978 
Q 719 816 1070 734 
Q 1422 653 1784 653 
Q 2113 653 2278 743 
Q 2444 834 2444 1013 
Q 2444 1163 2330 1236 
Q 2216 1309 1875 1350 
L 1678 1375 
Q 931 1469 631 1722 
Q 331 1975 331 2491 
Q 331 3047 712 3315 
Q 1094 3584 1881 3584 
Q 2191 3584 2531 3537 
Q 2872 3491 3272 3391 
z
" transform="scale(0.015625)"/>
     <path id="DejaVuSans-Bold-69" d="M 538 3500 
L 1656 3500 
L 1656 0 
L 538 0 
L 538 3500 
z
M 538 4863 
L 1656 4863 
L 1656 3950 
L 538 3950 
L 538 4863 
z
" transform="scale(0.015625)"/>
     <path id="DejaVuSans-Bold-6d" d="M 3781 2919 
Q 3994 3244 4286 3414 
Q 4578 3584 4928 3584 
Q 5531 3584 5847 3212 
Q 6163 2841 6163 2131 
L 6163 0 
L 5038 0 
L 5038 1825 
Q 5041 1866 5042 1909 
Q 5044 1953 5044 2034 
Q 5044 2406 4934 2573 
Q 4825 2741 4581 2741 
Q 4263 2741 4089 2478 
Q 3916 2216 3909 1719 
L 3909 0 
L 2784 0 
L 2784 1825 
Q 2784 2406 2684 2573 
Q 2584 2741 2328 2741 
Q 2006 2741 1831 2477 
Q 1656 2213 1656 1722 
L 1656 0 
L 531 0 
L 531 3500 
L 1656 3500 
L 1656 2988 
Q 1863 3284 2130 3434 
Q 2397 3584 2719 3584 
Q 3081 3584 3359 3409 
Q 3638 3234 3781 2919 
z
" transform="scale(0.015625)"/>
     <path id="DejaVuSans-Bold-6c" d="M 538 4863 
L 1656 4863 
L 1656 0 
L 538 0 
L 538 4863 
z
" transform="scale(0.015625)"/>
     <path id="DejaVuSans-Bold-61" d="M 2106 1575 
Q 1756 1575 1579 1456 
Q 1403 1338 1403 1106 
Q 1403 894 1545 773 
Q 1688 653 1941 653 
Q 2256 653 2472 879 
Q 2688 1106 2688 1447 
L 2688 1575 
L 2106 1575 
z
M 3816 1997 
L 3816 0 
L 2688 0 
L 2688 519 
Q 2463 200 2181 54 
Q 1900 -91 1497 -91 
Q 953 -91 614 226 
Q 275 544 275 1050 
Q 275 1666 698 1953 
Q 1122 2241 2028 2241 
L 2688 2241 
L 2688 2328 
Q 2688 2594 2478 2717 
Q 2269 2841 1825 2841 
Q 1466 2841 1156 2769 
Q 847 2697 581 2553 
L 581 3406 
Q 941 3494 1303 3539 
Q 1666 3584 2028 3584 
Q 2975 3584 3395 3211 
Q 3816 2838 3816 1997 
z
" transform="scale(0.015625)"/>
     <path id="DejaVuSans-Bold-74" d="M 1759 4494 
L 1759 3500 
L 2913 3500 
L 2913 2700 
L 1759 2700 
L 1759 1216 
Q 1759 972 1856 886 
Q 1953 800 2241 800 
L 2816 800 
L 2816 0 
L 1856 0 
Q 1194 0 917 276 
Q 641 553 641 1216 
L 641 2700 
L 84 2700 
L 84 3500 
L 641 3500 
L 641 4494 
L 1759 4494 
z
" transform="scale(0.015625)"/>
     <path id="DejaVuSans-Bold-6f" d="M 2203 2784 
Q 1831 2784 1636 2517 
Q 1441 2250 1441 1747 
Q 1441 1244 1636 976 
Q 1831 709 2203 709 
Q 2569 709 2762 976 
Q 2956 1244 2956 1747 
Q 2956 2250 2762 2517 
Q 2569 2784 2203 2784 
z
M 2203 3584 
Q 3106 3584 3614 3096 
Q 4122 2609 4122 1747 
Q 4122 884 3614 396 
Q 3106 -91 2203 -91 
Q 1297 -91 786 396 
Q 275 884 275 1747 
Q 275 2609 786 3096 
Q 1297 3584 2203 3584 
z
" transform="scale(0.015625)"/>
     <path id="DejaVuSans-Bold-72" d="M 3138 2547 
Q 2991 2616 2845 2648 
Q 2700 2681 2553 2681 
Q 2122 2681 1889 2404 
Q 1656 2128 1656 1613 
L 1656 0 
L 538 0 
L 538 3500 
L 1656 3500 
L 1656 2925 
Q 1872 3269 2151 3426 
Q 2431 3584 2822 3584 
Q 2878 3584 2943 3579 
Q 3009 3575 3134 3559 
L 3138 2547 
z
" transform="scale(0.015625)"/>
     <path id="DejaVuSans-Bold-79" d="M 78 3500 
L 1197 3500 
L 2138 1125 
L 2938 3500 
L 4056 3500 
L 2584 -331 
Q 2363 -916 2067 -1148 
Q 1772 -1381 1288 -1381 
L 641 -1381 
L 641 -647 
L 991 -647 
Q 1275 -647 1404 -556 
Q 1534 -466 1606 -231 
L 1638 -134 
L 78 3500 
z
" transform="scale(0.015625)"/>
     <path id="DejaVuSans-Bold-20" transform="scale(0.015625)"/>
     <path id="DejaVuSans-Bold-4e" d="M 588 4666 
L 1931 4666 
L 3628 1466 
L 3628 4666 
L 4769 4666 
L 4769 0 
L 3425 0 
L 1728 3200 
L 1728 0 
L 588 0 
L 588 4666 
z
" transform="scale(0.015625)"/>
     <path id="DejaVuSans-Bold-4f" d="M 2719 3878 
Q 2169 3878 1866 3472 
Q 1563 3066 1563 2328 
Q 1563 1594 1866 1187 
Q 2169 781 2719 781 
Q 3272 781 3575 1187 
Q 3878 1594 3878 2328 
Q 3878 3066 3575 3472 
Q 3272 3878 2719 3878 
z
M 2719 4750 
Q 3844 4750 4481 4106 
Q 5119 3463 5119 2328 
Q 5119 1197 4481 553 
Q 3844 -91 2719 -91 
Q 1597 -91 958 553 
Q 319 1197 319 2328 
Q 319 3463 958 4106 
Q 1597 4750 2719 4750 
z
" transform="scale(0.015625)"/>
     <path id="DejaVuSans-Bold-2083" d="M 1850 1412 
Q 2138 1356 2297 1184 
Q 2456 1012 2456 759 
Q 2456 356 2147 154 
Q 1838 -47 1209 -47 
Q 956 -47 725 -11 
Q 494 25 281 93 
L 281 637 
Q 488 525 688 467 
Q 888 409 1075 409 
Q 1372 409 1534 509 
Q 1697 609 1697 793 
Q 1697 993 1530 1088 
Q 1363 1184 1006 1184 
L 775 1184 
L 775 1612 
L 1038 1612 
Q 1344 1612 1484 1685 
Q 1625 1759 1625 1918 
Q 1625 2059 1503 2129 
Q 1381 2200 1131 2200 
Q 969 2200 776 2159 
Q 584 2118 366 2034 
L 366 2553 
Q 569 2606 805 2634 
Q 1041 2662 1313 2662 
Q 1834 2662 2111 2487 
Q 2388 2312 2388 1984 
Q 2388 1768 2247 1618 
Q 2106 1468 1850 1412 
z
" transform="scale(0.015625)"/>
     <path id="DejaVuSans-Bold-207b" d="M 428 3419 
L 2950 3419 
L 2950 3003 
L 428 3003 
L 428 3419 
z
" transform="scale(0.015625)"/>
     <path id="DejaVuSans-Bold-2f" d="M 1644 4666 
L 2338 4666 
L 691 -594 
L 0 -594 
L 1644 4666 
z
" transform="scale(0.015625)"/>
     <path id="DejaVuSans-Bold-2082" d="M 1288 525 
L 2444 525 
L 2444 0 
L 341 0 
L 341 478 
L 1319 1309 
Q 1509 1475 1590 1600 
Q 1672 1725 1672 1850 
Q 1672 2006 1558 2103 
Q 1444 2200 1259 2200 
Q 1066 2200 844 2129 
Q 622 2059 359 1912 
L 359 2493 
Q 631 2578 886 2620 
Q 1141 2662 1375 2662 
Q 1869 2662 2150 2460 
Q 2431 2259 2431 1912 
Q 2431 1687 2320 1498 
Q 2209 1309 1894 1040 
L 1288 525 
z
" transform="scale(0.015625)"/>
     <path id="DejaVuSans-Bold-65" d="M 4031 1759 
L 4031 1441 
L 1416 1441 
Q 1456 1047 1700 850 
Q 1944 653 2381 653 
Q 2734 653 3104 758 
Q 3475 863 3866 1075 
L 3866 213 
Q 3469 63 3072 -14 
Q 2675 -91 2278 -91 
Q 1328 -91 801 392 
Q 275 875 275 1747 
Q 275 2603 792 3093 
Q 1309 3584 2216 3584 
Q 3041 3584 3536 3087 
Q 4031 2591 4031 1759 
z
M 2881 2131 
Q 2881 2450 2695 2645 
Q 2509 2841 2209 2841 
Q 1884 2841 1681 2658 
Q 1478 2475 1428 2131 
L 2881 2131 
z
" transform="scale(0.015625)"/>
     <path id="DejaVuSans-Bold-64" d="M 2919 2988 
L 2919 4863 
L 4044 4863 
L 4044 0 
L 2919 0 
L 2919 506 
Q 2688 197 2409 53 
Q 2131 -91 1766 -91 
Q 1119 -91 703 423 
Q 288 938 288 1747 
Q 288 2556 703 3070 
Q 1119 3584 1766 3584 
Q 2128 3584 2408 3439 
Q 2688 3294 2919 2988 
z
M 2181 722 
Q 2541 722 2730 984 
Q 2919 1247 2919 1747 
Q 2919 2247 2730 2509 
Q 2541 2772 2181 2772 
Q 1825 2772 1636 2509 
Q 1447 2247 1447 1747 
Q 1447 1247 1636 984 
Q 1825 722 2181 722 
z
" transform="scale(0.015625)"/>
     <path id="DejaVuSans-Bold-75" d="M 500 1363 
L 500 3500 
L 1625 3500 
L 1625 3150 
Q 1625 2866 1622 2436 
Q 1619 2006 1619 1863 
Q 1619 1441 1641 1255 
Q 1663 1069 1716 984 
Q 1784 875 1895 815 
Q 2006 756 2150 756 
Q 2500 756 2700 1025 
Q 2900 1294 2900 1772 
L 2900 3500 
L 4019 3500 
L 4019 0 
L 2900 0 
L 2900 506 
Q 2647 200 2364 54 
Q 2081 -91 1741 -91 
Q 1134 -91 817 281 
Q 500 653 500 1363 
z
" transform="scale(0.015625)"/>
     <path id="DejaVuSans-Bold-63" d="M 3366 3391 
L 3366 2478 
Q 3138 2634 2908 2709 
Q 2678 2784 2431 2784 
Q 1963 2784 1702 2511 
Q 1441 2238 1441 1747 
Q 1441 1256 1702 982 
Q 1963 709 2431 709 
Q 2694 709 2930 787 
Q 3166 866 3366 1019 
L 3366 103 
Q 3103 6 2833 -42 
Q 2563 -91 2291 -91 
Q 1344 -91 809 395 
Q 275 881 275 1747 
Q 275 2613 809 3098 
Q 1344 3584 2291 3584 
Q 2566 3584 2833 3536 
Q 3100 3488 3366 3391 
z
" transform="scale(0.015625)"/>
     <path id="DejaVuSans-Bold-6e" d="M 4056 2131 
L 4056 0 
L 2931 0 
L 2931 347 
L 2931 1631 
Q 2931 2084 2911 2256 
Q 2891 2428 2841 2509 
Q 2775 2619 2662 2680 
Q 2550 2741 2406 2741 
Q 2056 2741 1856 2470 
Q 1656 2200 1656 1722 
L 1656 0 
L 538 0 
L 538 3500 
L 1656 3500 
L 1656 2988 
Q 1909 3294 2193 3439 
Q 2478 3584 2822 3584 
Q 3428 3584 3742 3212 
Q 4056 2841 4056 2131 
z
" transform="scale(0.015625)"/>
     <path id="DejaVuSans-Bold-2014" d="M 344 2156 
L 6056 2156 
L 6056 1350 
L 344 1350 
L 344 2156 
z
" transform="scale(0.015625)"/>
     <path id="DejaVuSans-Bold-36" d="M 2316 2303 
Q 2000 2303 1842 2098 
Q 1684 1894 1684 1484 
Q 1684 1075 1842 870 
Q 2000 666 2316 666 
Q 2634 666 2792 870 
Q 2950 1075 2950 1484 
Q 2950 1894 2792 2098 
Q 2634 2303 2316 2303 
z
M 3803 4544 
L 3803 3681 
Q 3506 3822 3243 3889 
Q 2981 3956 2731 3956 
Q 2194 3956 1894 3657 
Q 1594 3359 1544 2772 
Q 1750 2925 1990 3001 
Q 2231 3078 2516 3078 
Q 3231 3078 3670 2659 
Q 4109 2241 4109 1563 
Q 4109 813 3618 361 
Q 3128 -91 2303 -91 
Q 1394 -91 895 523 
Q 397 1138 397 2266 
Q 397 3422 980 4083 
Q 1563 4744 2578 4744 
Q 2900 4744 3203 4694 
Q 3506 4644 3803 4544 
z
" transform="scale(0.015625)"/>
     <path id="DejaVuSans-Bold-67" d="M 2919 594 
Q 2688 288 2409 144 
Q 2131 0 1766 0 
Q 1125 0 706 504 
Q 288 1009 288 1791 
Q 288 2575 706 3076 
Q 1125 3578 1766 3578 
Q 2131 3578 2409 3434 
Q 2688 3291 2919 2981 
L 2919 3500 
L 4044 3500 
L 4044 353 
Q 4044 -491 3511 -936 
Q 2978 -1381 1966 -1381 
Q 1638 -1381 1331 -1331 
Q 1025 -1281 716 -1178 
L 716 -306 
Q 1009 -475 1290 -558 
Q 1572 -641 1856 -641 
Q 2406 -641 2662 -400 
Q 2919 -159 2919 353 
L 2919 594 
z
M 2181 2772 
Q 1834 2772 1640 2515 
Q 1447 2259 1447 1791 
Q 1447 1309 1634 1061 
Q 1822 813 2181 813 
Q 2531 813 2725 1069 
Q 2919 1325 2919 1791 
Q 2919 2259 2725 2515 
Q 2531 2772 2181 2772 
z
" transform="scale(0.015625)"/>
     <path id="DejaVuSans-Bold-b7" d="M 653 2828 
L 1778 2828 
L 1778 1619 
L 653 1619 
L 653 2828 
z
" transform="scale(0.015625)"/>
    </defs>
    <use xlink:href="#DejaVuSans-Bold-41"/>
    <use xlink:href="#DejaVuSans-Bold-73" transform="translate(77.392578 0)"/>
    <use xlink:href="#DejaVuSans-Bold-73" transform="translate(136.914062 0)"/>
    <use xlink:href="#DejaVuSans-Bold-69" transform="translate(196.435547 0)"/>
    <use xlink:href="#DejaVuSans-Bold-6d" transform="translate(230.712891 0)"/>
    <use xlink:href="#DejaVuSans-Bold-69" transform="translate(334.912109 0)"/>
    <use xlink:href="#DejaVuSans-Bold-6c" transform="translate(369.189453 0)"/>
    <use xlink:href="#DejaVuSans-Bold-61" transform="translate(403.466797 0)"/>
    <use xlink:href="#DejaVuSans-Bold-74" transform="translate(470.947266 0)"/>
    <use xlink:href="#DejaVuSans-Bold-6f" transform="translate(518.75 0)"/>
    <use xlink:href="#DejaVuSans-Bold-72" transform="translate(587.451172 0)"/>
    <use xlink:href="#DejaVuSans-Bold-79" transform="translate(636.767578 0)"/>
    <use xlink:href="#DejaVuSans-Bold-20" transform="translate(701.953125 0)"/>
    <use xlink:href="#DejaVuSans-Bold-4e" transform="translate(736.767578 0)"/>
    <use xlink:href="#DejaVuSans-Bold-4f" transform="translate(820.458984 0)"/>
    <use xlink:href="#DejaVuSans-Bold-2083" transform="translate(905.46875 0)"/>
    <use xlink:href="#DejaVuSans-Bold-207b" transform="translate(949.267578 0)"/>
    <use xlink:href="#DejaVuSans-Bold-2f" transform="translate(1002.050781 0)"/>
    <use xlink:href="#DejaVuSans-Bold-4e" transform="translate(1038.574219 0)"/>
    <use xlink:href="#DejaVuSans-Bold-4f" transform="translate(1122.265625 0)"/>
    <use xlink:href="#DejaVuSans-Bold-2082" transform="translate(1207.275391 0)"/>
    <use xlink:href="#DejaVuSans-Bold-207b" transform="translate(1251.074219 0)"/>
    <use xlink:href="#DejaVuSans-Bold-20" transform="translate(1303.857422 0)"/>
    <use xlink:href="#DejaVuSans-Bold-72" transform="translate(1338.671875 0)"/>
    <use xlink:href="#DejaVuSans-Bold-65" transform="translate(1387.988281 0)"/>
    <use xlink:href="#DejaVuSans-Bold-64" transform="translate(1455.810547 0)"/>
    <use xlink:href="#DejaVuSans-Bold-75" transform="translate(1527.392578 0)"/>
    <use xlink:href="#DejaVuSans-Bold-63" transform="translate(1598.583984 0)"/>
    <use xlink:href="#DejaVuSans-Bold-74" transform="translate(1657.861328 0)"/>
    <use xlink:href="#DejaVuSans-Bold-69" transform="translate(1705.664062 0)"/>
    <use xlink:href="#DejaVuSans-Bold-6f" transform="translate(1739.941406 0)"/>
    <use xlink:href="#DejaVuSans-Bold-6e" transform="translate(1808.642578 0)"/>
    <use xlink:href="#DejaVuSans-Bold-20" transform="translate(1879.833984 0)"/>
    <use xlink:href="#DejaVuSans-Bold-2014" transform="translate(1914.648438 0)"/>
    <use xlink:href="#DejaVuSans-Bold-20" transform="translate(2014.648438 0)"/>
    <use xlink:href="#DejaVuSans-Bold-36" transform="translate(2049.462891 0)"/>
    <use xlink:href="#DejaVuSans-Bold-20" transform="translate(2119.042969 0)"/>
    <use xlink:href="#DejaVuSans-Bold-67" transform="translate(2153.857422 0)"/>
    <use xlink:href="#DejaVuSans-Bold-65" transform="translate(2225.439453 0)"/>
    <use xlink:href="#DejaVuSans-Bold-6e" transform="translate(2293.261719 0)"/>
    <use xlink:href="#DejaVuSans-Bold-65" transform="translate(2364.453125 0)"/>
    <use xlink:href="#DejaVuSans-Bold-73" transform="translate(2432.275391 0)"/>
    <use xlink:href="#DejaVuSans-Bold-20" transform="translate(2491.796875 0)"/>
    <use xlink:href="#DejaVuSans-Bold-b7" transform="translate(2526.611328 0)"/>
    <use xlink:href="#DejaVuSans-Bold-20" transform="translate(2564.599609 0)"/>
    <use xlink:href="#DejaVuSans-Bold-36" transform="translate(2599.414062 0)"/>
    <use xlink:href="#DejaVuSans-Bold-20" transform="translate(2668.994141 0)"/>
    <use xlink:href="#DejaVuSans-Bold-67" transform="translate(2703.808594 0)"/>
    <use xlink:href="#DejaVuSans-Bold-65" transform="translate(2775.390625 0)"/>
    <use xlink:href="#DejaVuSans-Bold-6e" transform="translate(2843.212891 0)"/>
    <use xlink:href="#DejaVuSans-Bold-6f" transform="translate(2914.404297 0)"/>
    <use xlink:href="#DejaVuSans-Bold-6d" transform="translate(2983.105469 0)"/>
    <use xlink:href="#DejaVuSans-Bold-65" transform="translate(3087.304688 0)"/>
    <use xlink:href="#DejaVuSans-Bold-73" transform="translate(3155.126953 0)"/>
   </g>
  </g>
  <g id="text_18">
   <!-- No gene of this pathway found (4): -->
   <g style="fill: #52514e" transform="translate(97.6625 253.03875) scale(0.08 -0.08)">
    <defs>
     <path id="DejaVuSans-34" d="M 2419 4116 
L 825 1625 
L 2419 1625 
L 2419 4116 
z
M 2253 4666 
L 3047 4666 
L 3047 1625 
L 3713 1625 
L 3713 1100 
L 3047 1100 
L 3047 0 
L 2419 0 
L 2419 1100 
L 313 1100 
L 313 1709 
L 2253 4666 
z
" transform="scale(0.015625)"/>
     <path id="DejaVuSans-3a" d="M 750 794 
L 1409 794 
L 1409 0 
L 750 0 
L 750 794 
z
M 750 3309 
L 1409 3309 
L 1409 2516 
L 750 2516 
L 750 3309 
z
" transform="scale(0.015625)"/>
    </defs>
    <use xlink:href="#DejaVuSans-4e"/>
    <use xlink:href="#DejaVuSans-6f" transform="translate(74.804688 0)"/>
    <use xlink:href="#DejaVuSans-20" transform="translate(135.986328 0)"/>
    <use xlink:href="#DejaVuSans-67" transform="translate(167.773438 0)"/>
    <use xlink:href="#DejaVuSans-65" transform="translate(231.25 0)"/>
    <use xlink:href="#DejaVuSans-6e" transform="translate(292.773438 0)"/>
    <use xlink:href="#DejaVuSans-65" transform="translate(356.152344 0)"/>
    <use xlink:href="#DejaVuSans-20" transform="translate(417.675781 0)"/>
    <use xlink:href="#DejaVuSans-6f" transform="translate(449.462891 0)"/>
    <use xlink:href="#DejaVuSans-66" transform="translate(510.644531 0)"/>
    <use xlink:href="#DejaVuSans-20" transform="translate(545.849609 0)"/>
    <use xlink:href="#DejaVuSans-74" transform="translate(577.636719 0)"/>
    <use xlink:href="#DejaVuSans-68" transform="translate(616.845703 0)"/>
    <use xlink:href="#DejaVuSans-69" transform="translate(680.224609 0)"/>
    <use xlink:href="#DejaVuSans-73" transform="translate(708.007812 0)"/>
    <use xlink:href="#DejaVuSans-20" transform="translate(760.107422 0)"/>
    <use xlink:href="#DejaVuSans-70" transform="translate(791.894531 0)"/>
    <use xlink:href="#DejaVuSans-61" transform="translate(855.371094 0)"/>
    <use xlink:href="#DejaVuSans-74" transform="translate(916.650391 0)"/>
    <use xlink:href="#DejaVuSans-68" transform="translate(955.859375 0)"/>
    <use xlink:href="#DejaVuSans-77" transform="translate(1019.238281 0)"/>
    <use xlink:href="#DejaVuSans-61" transform="translate(1101.025391 0)"/>
    <use xlink:href="#DejaVuSans-79" transform="translate(1162.304688 0)"/>
    <use xlink:href="#DejaVuSans-20" transform="translate(1221.484375 0)"/>
    <use xlink:href="#DejaVuSans-66" transform="translate(1253.271484 0)"/>
    <use xlink:href="#DejaVuSans-6f" transform="translate(1288.476562 0)"/>
    <use xlink:href="#DejaVuSans-75" transform="translate(1349.658203 0)"/>
    <use xlink:href="#DejaVuSans-6e" transform="translate(1413.037109 0)"/>
    <use xlink:href="#DejaVuSans-64" transform="translate(1476.416016 0)"/>
    <use xlink:href="#DejaVuSans-20" transform="translate(1539.892578 0)"/>
    <use xlink:href="#DejaVuSans-28" transform="translate(1571.679688 0)"/>
    <use xlink:href="#DejaVuSans-34" transform="translate(1610.693359 0)"/>
    <use xlink:href="#DejaVuSans-29" transform="translate(1674.316406 0)"/>
    <use xlink:href="#DejaVuSans-3a" transform="translate(1713.330078 0)"/>
   </g>
  </g>
  <g id="text_19">
   <!-- D3_Thioglobus_OMZ, N1_Nitrosopumilus_marine, -->
   <g style="fill: #666666" transform="translate(97.6625 263.798906) scale(0.07 -0.07)">
    <defs>
     <path id="DejaVuSans-5a" d="M 359 4666 
L 4025 4666 
L 4025 4184 
L 1075 531 
L 4097 531 
L 4097 0 
L 288 0 
L 288 481 
L 3238 4134 
L 359 4134 
L 359 4666 
z
" transform="scale(0.015625)"/>
    </defs>
    <use xlink:href="#DejaVuSans-44"/>
    <use xlink:href="#DejaVuSans-33" transform="translate(77.001953 0)"/>
    <use xlink:href="#DejaVuSans-5f" transform="translate(140.625 0)"/>
    <use xlink:href="#DejaVuSans-54" transform="translate(190.625 0)"/>
    <use xlink:href="#DejaVuSans-68" transform="translate(251.708984 0)"/>
    <use xlink:href="#DejaVuSans-69" transform="translate(315.087891 0)"/>
    <use xlink:href="#DejaVuSans-6f" transform="translate(342.871094 0)"/>
    <use xlink:href="#DejaVuSans-67" transform="translate(404.052734 0)"/>
    <use xlink:href="#DejaVuSans-6c" transform="translate(467.529297 0)"/>
    <use xlink:href="#DejaVuSans-6f" transform="translate(495.3125 0)"/>
    <use xlink:href="#DejaVuSans-62" transform="translate(556.494141 0)"/>
    <use xlink:href="#DejaVuSans-75" transform="translate(619.970703 0)"/>
    <use xlink:href="#DejaVuSans-73" transform="translate(683.349609 0)"/>
    <use xlink:href="#DejaVuSans-5f" transform="translate(735.449219 0)"/>
    <use xlink:href="#DejaVuSans-4f" transform="translate(785.449219 0)"/>
    <use xlink:href="#DejaVuSans-4d" transform="translate(864.160156 0)"/>
    <use xlink:href="#DejaVuSans-5a" transform="translate(950.439453 0)"/>
    <use xlink:href="#DejaVuSans-2c" transform="translate(1018.945312 0)"/>
    <use xlink:href="#DejaVuSans-20" transform="translate(1050.732422 0)"/>
    <use xlink:href="#DejaVuSans-4e" transform="translate(1082.519531 0)"/>
    <use xlink:href="#DejaVuSans-31" transform="translate(1157.324219 0)"/>
    <use xlink:href="#DejaVuSans-5f" transform="translate(1220.947266 0)"/>
    <use xlink:href="#DejaVuSans-4e" transform="translate(1270.947266 0)"/>
    <use xlink:href="#DejaVuSans-69" transform="translate(1345.751953 0)"/>
    <use xlink:href="#DejaVuSans-74" transform="translate(1373.535156 0)"/>
    <use xlink:href="#DejaVuSans-72" transform="translate(1412.744141 0)"/>
    <use xlink:href="#DejaVuSans-6f" transform="translate(1451.607422 0)"/>
    <use xlink:href="#DejaVuSans-73" transform="translate(1512.789062 0)"/>
    <use xlink:href="#DejaVuSans-6f" transform="translate(1564.888672 0)"/>
    <use xlink:href="#DejaVuSans-70" transform="translate(1626.070312 0)"/>
    <use xlink:href="#DejaVuSans-75" transform="translate(1689.546875 0)"/>
    <use xlink:href="#DejaVuSans-6d" transform="translate(1752.925781 0)"/>
    <use xlink:href="#DejaVuSans-69" transform="translate(1850.337891 0)"/>
    <use xlink:href="#DejaVuSans-6c" transform="translate(1878.121094 0)"/>
    <use xlink:href="#DejaVuSans-75" transform="translate(1905.904297 0)"/>
    <use xlink:href="#DejaVuSans-73" transform="translate(1969.283203 0)"/>
    <use xlink:href="#DejaVuSans-5f" transform="translate(2021.382812 0)"/>
    <use xlink:href="#DejaVuSans-6d" transform="translate(2071.382812 0)"/>
    <use xlink:href="#DejaVuSans-61" transform="translate(2168.794922 0)"/>
    <use xlink:href="#DejaVuSans-72" transform="translate(2230.074219 0)"/>
    <use xlink:href="#DejaVuSans-69" transform="translate(2271.1875 0)"/>
    <use xlink:href="#DejaVuSans-6e" transform="translate(2298.970703 0)"/>
    <use xlink:href="#DejaVuSans-65" transform="translate(2362.349609 0)"/>
    <use xlink:href="#DejaVuSans-2c" transform="translate(2423.873047 0)"/>
   </g>
  </g>
  <g id="text_20">
   <!-- N4_Nitrospira_comammox, Neg1_Bacteroides_gut -->
   <g style="fill: #666666" transform="translate(97.6625 275.318906) scale(0.07 -0.07)">
    <defs>
     <path id="DejaVuSans-78" d="M 3513 3500 
L 2247 1797 
L 3578 0 
L 2900 0 
L 1881 1375 
L 863 0 
L 184 0 
L 1544 1831 
L 300 3500 
L 978 3500 
L 1906 2253 
L 2834 3500 
L 3513 3500 
z
" transform="scale(0.015625)"/>
    </defs>
    <use xlink:href="#DejaVuSans-4e"/>
    <use xlink:href="#DejaVuSans-34" transform="translate(74.804688 0)"/>
    <use xlink:href="#DejaVuSans-5f" transform="translate(138.427734 0)"/>
    <use xlink:href="#DejaVuSans-4e" transform="translate(188.427734 0)"/>
    <use xlink:href="#DejaVuSans-69" transform="translate(263.232422 0)"/>
    <use xlink:href="#DejaVuSans-74" transform="translate(291.015625 0)"/>
    <use xlink:href="#DejaVuSans-72" transform="translate(330.224609 0)"/>
    <use xlink:href="#DejaVuSans-6f" transform="translate(369.087891 0)"/>
    <use xlink:href="#DejaVuSans-73" transform="translate(430.269531 0)"/>
    <use xlink:href="#DejaVuSans-70" transform="translate(482.369141 0)"/>
    <use xlink:href="#DejaVuSans-69" transform="translate(545.845703 0)"/>
    <use xlink:href="#DejaVuSans-72" transform="translate(573.628906 0)"/>
    <use xlink:href="#DejaVuSans-61" transform="translate(614.742188 0)"/>
    <use xlink:href="#DejaVuSans-5f" transform="translate(676.021484 0)"/>
    <use xlink:href="#DejaVuSans-63" transform="translate(726.021484 0)"/>
    <use xlink:href="#DejaVuSans-6f" transform="translate(781.001953 0)"/>
    <use xlink:href="#DejaVuSans-6d" transform="translate(842.183594 0)"/>
    <use xlink:href="#DejaVuSans-61" transform="translate(939.595703 0)"/>
    <use xlink:href="#DejaVuSans-6d" transform="translate(1000.875 0)"/>
    <use xlink:href="#DejaVuSans-6d" transform="translate(1098.287109 0)"/>
    <use xlink:href="#DejaVuSans-6f" transform="translate(1195.699219 0)"/>
    <use xlink:href="#DejaVuSans-78" transform="translate(1253.755859 0)"/>
    <use xlink:href="#DejaVuSans-2c" transform="translate(1312.935547 0)"/>
    <use xlink:href="#DejaVuSans-20" transform="translate(1344.722656 0)"/>
    <use xlink:href="#DejaVuSans-4e" transform="translate(1376.509766 0)"/>
    <use xlink:href="#DejaVuSans-65" transform="translate(1451.314453 0)"/>
    <use xlink:href="#DejaVuSans-67" transform="translate(1512.837891 0)"/>
    <use xlink:href="#DejaVuSans-31" transform="translate(1576.314453 0)"/>
    <use xlink:href="#DejaVuSans-5f" transform="translate(1639.9375 0)"/>
    <use xlink:href="#DejaVuSans-42" transform="translate(1689.9375 0)"/>
    <use xlink:href="#DejaVuSans-61" transform="translate(1758.541016 0)"/>
    <use xlink:href="#DejaVuSans-63" transform="translate(1819.820312 0)"/>
    <use xlink:href="#DejaVuSans-74" transform="translate(1874.800781 0)"/>
    <use xlink:href="#DejaVuSans-65" transform="translate(1914.009766 0)"/>
    <use xlink:href="#DejaVuSans-72" transform="translate(1975.533203 0)"/>
    <use xlink:href="#DejaVuSans-6f" transform="translate(2014.396484 0)"/>
    <use xlink:href="#DejaVuSans-69" transform="translate(2075.578125 0)"/>
    <use xlink:href="#DejaVuSans-64" transform="translate(2103.361328 0)"/>
    <use xlink:href="#DejaVuSans-65" transform="translate(2166.837891 0)"/>
    <use xlink:href="#DejaVuSans-73" transform="translate(2228.361328 0)"/>
    <use xlink:href="#DejaVuSans-5f" transform="translate(2280.460938 0)"/>
    <use xlink:href="#DejaVuSans-67" transform="translate(2330.460938 0)"/>
    <use xlink:href="#DejaVuSans-75" transform="translate(2393.9375 0)"/>
    <use xlink:href="#DejaVuSans-74" transform="translate(2457.316406 0)"/>
   </g>
  </g>
 </g>
 <defs>
  <clipPath id="p8e6d978f95">
   <rect x="127.9025" y="61.2" width="120.96" height="120.96"/>
  </clipPath>
 </defs>
</svg>
